<svg width="54px" height="54px"  xmlns="http://www.w3.org/2000/svg" viewBox="0 0 628.13 998.41"><defs><style>.cls-1{isolation:isolate;}.cls-2{opacity:0.3;}.cls-2,.cls-8{mix-blend-mode:multiply;}.cls-3{fill:#f04e63;}.cls-4{fill:#fbb034;}.cls-5{fill:#00babe;}.cls-6{fill:#fff;}.cls-7{fill:#401663;}.cls-8{fill:#231f20;opacity:0.25;}</style></defs><title>clock</title><g class="cls-1"><g id="Layer_2" data-name="Layer 2"><g id="clock"><polygon class="cls-3" points="440.67 718.04 547.04 656.23 591.43 731.37 485.07 793.18 440.67 718.04"/><path class="cls-3" d="M591.58,759.54,485.22,821.35l.19-.11c3.19-1.93,4.92-5.93,4.86-11.24a34.86,34.86,0,0,0-5.2-16.82l106.36-61.82a34.94,34.94,0,0,1,5.21,16.83c.06,5.31-1.67,9.3-4.86,11.23l-.2.12"/><path class="cls-4" d="M76.1,79.42,182.46,17.6C229.9-10,295.59-6.07,368.09,35.78L261.72,97.59C189.22,55.74,123.54,51.85,76.1,79.42"/><path class="cls-4" d="M552.06,653.46,445.69,715.28c46.82-27.21,75.84-85.08,76.07-167.3.47-165.55-115.95-367.19-260-450.39L368.09,35.78C512.17,119,628.6,320.62,628.13,486.17c-.24,82.22-29.25,140.09-76.07,167.29"/><path class="cls-5" d="M261.72,97.59c144.09,83.2,260.51,284.84,260,450.39-.24,85.12-31.33,144.14-81.09,170.06l44.4,75.14a34.86,34.86,0,0,1,5.2,16.82c.06,5.31-1.67,9.31-4.86,11.24s-7.45,1.64-12-.91a34.75,34.75,0,0,1-12.2-12.59l-47-79.49C371,739.67,317.64,730.41,260,697.14S149.23,611.66,106.17,550.4L58.89,575.47c-3.21,1.71-7.46,1.24-11.91-1.33-4.63-2.67-9.11-7.45-12.32-13.14a34.05,34.05,0,0,1-4.76-16.79c.1-5.2,2-9,5.27-10.78l44.67-23.72C30.41,426.53-.24,331.86,0,246.74.47,81.19,117.65,14.41,261.72,97.59"/><path class="cls-6" d="M140.25,396.35h0L88.77,426.27l51.48-29.92"/><path class="cls-6" d="M140.25,396.35l.06,0L88.83,426.3l-.06,0,51.48-29.92"/><path class="cls-6" d="M88.83,426.3l51.48-29.92s0,0,.06,0L88.89,426.33l-.06,0"/><path class="cls-6" d="M190.91,496.86l-23.1,13.43-22.36,13h0l45.46-26.42"/><path class="cls-6" d="M140.36,396.42c1.87,1.08,3.57,1.17,4.79.45L93.68,426.79c-1.23.71-2.92.62-4.79-.46l51.47-29.91"/><path class="cls-6" d="M133.49,384.61a15,15,0,0,0,6.76,11.74L88.77,426.26A14.89,14.89,0,0,1,82,414.53q25.73-15,51.47-29.92-25.74,15-51.47,29.92c0-2.15.77-3.67,2-4.38l51.47-29.92c-1.23.72-2,2.23-2,4.38"/><path class="cls-6" d="M203.71,505.12c1.91,1.1,3.63,1.21,4.87.48L157.1,535.52c-1.24.72-3,.61-4.87-.48l51.48-29.92"/><path class="cls-6" d="M196.92,493.37a15,15,0,0,0,6.79,11.75L152.23,535a15,15,0,0,1-6.78-11.75l51.47-29.91-51.47,29.91h0c0-2.16.79-3.68,2-4.39L198.93,489c-1.22.71-2,2.24-2,4.4"/><path class="cls-7" d="M84,410.15l51.47-29.92c1.25-.72,3-.62,4.86.47L88.88,410.62c-1.9-1.1-3.62-1.19-4.86-.47"/><path class="cls-7" d="M147.46,518.89,198.93,489c1.24-.72,2.95-.61,4.85.49l-51.47,29.91c-1.91-1.1-3.62-1.2-4.85-.48"/><path class="cls-7" d="M145.16,396.87,93.68,426.79c1.23-.71,2-2.23,2-4.37a15.19,15.19,0,0,0-6.82-11.81l51.47-29.91a15.12,15.12,0,0,1,6.82,11.81c0,2.14-.79,3.65-2,4.36"/><path class="cls-7" d="M208.58,505.61l-51.47,29.91c1.22-.71,2-2.23,2-4.4a14.92,14.92,0,0,0-6.78-11.75l51.48-29.91a15,15,0,0,1,6.78,11.75c0,2.17-.76,3.68-2,4.4"/><path class="cls-7" d="M152.31,519.37a14.92,14.92,0,0,1,6.78,11.75c0,4.36-3.06,6.1-6.86,3.91a15,15,0,0,1-6.79-11.75c.05-4.34,3.08-6.1,6.87-3.91"/><path class="cls-6" d="M49.67,290.87l45.46-26.42L49.67,290.87Z"/><path class="cls-6" d="M280.84,572.22c-14.95,3.86-24.91,7.71-35.55,13.74L285,562.86c-2.74,1.59-4.21,5-4.19,9.36"/><path class="cls-6" d="M295.12,596.82a12.21,12.21,0,0,0,7.47,1.88l-51.48,29.92a12.18,12.18,0,0,1-7.46-1.89l51.47-29.91-51.47,29.91c-4.83-2.79-9.54-8.33-12.23-15q25.72-15,51.47-29.91-25.74,14.94-51.47,29.91c-3.47-8.6-2.42-16.31,2.13-19,4.12-2.39,9.55-5.67,13.73-7.95,3.95-2.16,7-3.56,8.47-4.19a154.2,154.2,0,0,1,25.09-8.42,26.14,26.14,0,0,0,2.05,9.6c2.7,6.67,7.4,12.21,12.23,15"/><path class="cls-6" d="M302.59,598.7a7.13,7.13,0,0,0,2.76-.9l-51.48,29.92a7.08,7.08,0,0,1-2.76.9c15.45-9,34.53-24.27,51.48-29.92"/><path class="cls-6" d="M101.15,261c0,9.1,6.35,20.16,14.28,24.74L64,315.61C56,311,49.65,300,49.67,290.87l2.58-1.5L101.14,261,49.67,290.87c0-4.53,1.61-7.73,4.19-9.23l51.48-29.91c-2.58,1.5-4.18,4.69-4.19,9.23"/><path class="cls-6" d="M115.43,285.7c4,2.31,7.62,2.52,10.23,1L74.19,316.62c-2.62,1.52-6.24,1.3-10.24-1l51.48-29.92"/><polygon class="cls-6" points="83.89 334.9 135.37 304.98 281.35 367.93 229.87 397.85 83.89 334.9"/><path class="cls-6" d="M285.1,352.74c-2.74,1.58-4.43,5-4.45,9.74L229.18,392.4v0l25.6-14.88,25.61-14.88-51.21,29.76c0-4.75,1.71-8.11,4.44-9.7l51.48-29.91"/><polygon class="cls-7" points="83.41 329.6 134.88 299.69 280.65 362.52 229.18 392.43 83.41 329.6"/><path class="cls-6" d="M82.76,329.61l51.48-29.92c-.42.25-.65,1-.54,2a4.56,4.56,0,0,0,1.67,3.26L83.89,334.9a4.58,4.58,0,0,1-1.67-3.27c-.11-1,.12-1.78.54-2"/><path class="cls-7" d="M134.24,299.69a.71.71,0,0,1,.64,0L83.41,329.6a.68.68,0,0,0-.65,0l51.48-29.92"/><path class="cls-7" d="M233.55,592.78,285,562.87a6.83,6.83,0,0,1,2.74-.91,12.13,12.13,0,0,1,7.45,1.87l-51.48,29.92a12.11,12.11,0,0,0-7.44-1.88,7.26,7.26,0,0,0-2.75.91"/><path class="cls-7" d="M53.86,281.64l51.48-29.91c2.6-1.51,6.2-1.3,10.18,1L64.05,282.64c-4-2.29-7.59-2.51-10.19-1"/><path class="cls-7" d="M243.74,593.75c4.84,2.79,9.55,8.34,12.22,15,4.09,10.12,1.94,19.05-4.85,19.85a12.25,12.25,0,0,1-7.46-1.89c-4.83-2.79-9.54-8.33-12.23-15-4.08-10.12-1.91-19,4.88-19.87a12.11,12.11,0,0,1,7.44,1.88"/><path class="cls-7" d="M305.35,597.8l-51.47,29.91c4.53-2.63,5.55-10.35,2.08-18.94-2.67-6.68-7.39-12.23-12.22-15l51.48-29.92c4.83,2.79,9.54,8.34,12.22,15,3.46,8.58,2.45,16.31-2.09,18.94"/><path class="cls-7" d="M125.66,286.71,74.19,316.62c2.57-1.49,4.16-4.67,4.17-9.18,0-9.13-6.38-20.22-14.31-24.8l51.47-29.91c7.93,4.58,14.32,15.66,14.32,24.79,0,4.52-1.6,7.69-4.18,9.19"/><path class="cls-7" d="M64.05,282.64c7.93,4.58,14.31,15.67,14.32,24.8S71.88,320.19,64,315.61,49.64,300,49.67,290.87s6.45-12.8,14.38-8.23"/><path class="cls-6" d="M133.5,166.81c-1.22.72-2,2.23-2,4.37l-25.74,15L86.05,197.6l-6,3.5c0-2.15.76-3.66,2-4.37l51.48-29.92"/><path class="cls-6" d="M138.3,183c1.9,1.11,3.63,1.2,4.87.48L91.7,213.36c-1.25.73-3,.63-4.88-.47A15.06,15.06,0,0,1,80,201.1l51.48-29.92A15,15,0,0,0,138.3,183"/><path class="cls-6" d="M382.27,600.34a15,15,0,0,0,6.78,11.79l-25.74,15L358.25,630l-14.66,8.52-6,3.49a15,15,0,0,1-6.79-11.79l51.47-29.91-51.47,29.91c0-2.13.76-3.64,2-4.35L384.25,596c-1.22.71-2,2.21-2,4.35"/><path class="cls-6" d="M389.05,612.13c1.91,1.1,3.64,1.2,4.88.48l-51.47,29.92c-1.25.72-3,.62-4.89-.49l51.48-29.91"/><path class="cls-7" d="M82,196.73l51.48-29.92c1.24-.72,3-.62,4.87.46L86.9,197.19C85,196.1,83.27,196,82,196.73"/><path class="cls-7" d="M332.78,625.9,384.25,596c1.25-.73,3-.63,4.88.47l-51.48,29.92c-1.9-1.1-3.63-1.2-4.87-.48"/><path class="cls-7" d="M143.17,183.45,91.7,213.36c1.23-.71,2-2.23,2-4.37a15.2,15.2,0,0,0-6.81-11.8l51.47-29.92a15.21,15.21,0,0,1,6.82,11.81c0,2.14-.79,3.66-2,4.37"/><path class="cls-7" d="M86.9,197.19A15.16,15.16,0,0,1,93.71,209c0,4.31-3.09,6.09-6.89,3.9A15.07,15.07,0,0,1,80,201.1c0-4.32,3.07-6.06,6.87-3.91"/><path class="cls-7" d="M393.93,612.61l-51.47,29.92c1.22-.71,2-2.22,2-4.36a14.92,14.92,0,0,0-6.79-11.79l51.48-29.92a14.88,14.88,0,0,1,6.78,11.79c0,2.15-.76,3.66-2,4.36"/><path class="cls-7" d="M337.65,626.38a14.92,14.92,0,0,1,6.79,11.79c0,4.32-3.07,6.06-6.86,3.87a14.94,14.94,0,0,1-6.79-11.79c0-4.32,3.1-6,6.86-3.87"/><path class="cls-6" d="M229.88,397.85l51.47-29.92c1.84,8.26,7.58,16.83,14.45,20.8,3.11,1.79,6,2.37,8.37,1.93L252.7,420.58c-2.4.44-5.27-.14-8.37-1.94-6.87-4-12.61-12.53-14.45-20.79"/><path class="cls-7" d="M258.88,404.61l51.47-29.92a24.6,24.6,0,0,1,.64,4.92l-51.47,29.91a25.16,25.16,0,0,0-.64-4.91"/><path class="cls-7" d="M233.63,382.65l51.47-29.92c2.76-1.6,6.57-1.38,10.77,1a24.62,24.62,0,0,1,5.09,4.05l-51.47,29.91a24.74,24.74,0,0,0-5.1-4.05c-4.19-2.43-8-2.64-10.76-1"/><polygon class="cls-6" points="252.7 420.58 304.17 390.66 396.74 492.16 345.26 522.08 252.7 420.58"/><path class="cls-6" d="M379.2,504.4l-32.47,18.87h0a6.16,6.16,0,0,1-1.47-1.2l51.48-29.91a6.21,6.21,0,0,0,1.47,1.2l-19,11"/><path class="cls-6" d="M398.21,493.36a4,4,0,0,0,4.1.08l-51.47,29.91a4,4,0,0,1-4.11-.08Z"/><path class="cls-6" d="M182.31,141.62l-39.08,22.72h0l39.08-22.72"/><polygon class="cls-7" points="259.52 409.52 311 379.61 402.75 480.28 351.27 510.19 259.52 409.52"/><path class="cls-7" d="M402.31,493.44l-51.48,29.91a5.33,5.33,0,0,0,2-2.2,10.53,10.53,0,0,0-1.55-10.95l51.47-29.92a10.52,10.52,0,0,1,1.56,11,5.3,5.3,0,0,1-2,2.21"/><path class="cls-7" d="M150.06,160.45a15,15,0,0,1,6.81,11.77c0,4.35-3.06,6.1-6.86,3.91a14.93,14.93,0,0,1-6.78-11.79c0-4.32,3.06-6.06,6.83-3.89"/><path class="cls-7" d="M400.84,589.62c3.76,2.17,6.83,7.48,6.79,11.75s-3,6.12-6.83,3.93A15,15,0,0,1,394,593.53c0-4.36,3.07-6.1,6.86-3.91"/><path class="cls-7" d="M425,491c7.9,4.56,14.31,15.63,14.26,24.76s-6.46,12.77-14.38,8.19-14.34-15.68-14.28-24.74S417,486.48,425,491"/><path class="cls-7" d="M244.91,179.05c4.83,2.79,9.54,8.33,12.23,15,4.08,10.12,1.94,19-4.85,19.88a12.24,12.24,0,0,1-7.45-1.9c-4.85-2.8-9.57-8.35-12.24-15-4.09-10.12-1.91-19,4.85-19.85a12.2,12.2,0,0,1,7.46,1.89"/><path class="cls-6" d="M150.06,160.44c-3.77-2.17-6.82-.42-6.83,3.9A14.93,14.93,0,0,0,150,176.13c3.8,2.19,6.85.45,6.86-3.91a15,15,0,0,0-6.81-11.78M152.23,535c3.8,2.19,6.85.45,6.86-3.9a14.92,14.92,0,0,0-6.78-11.76c-3.79-2.19-6.82-.43-6.86,3.91A15,15,0,0,0,152.23,535m183.2-267.56c-3.76-2.17-6.85-.44-6.86,3.88a15,15,0,0,0,6.82,11.8c3.76,2.17,6.85.45,6.86-3.91a15,15,0,0,0-6.82-11.77M400.8,605.3c3.79,2.19,6.85.45,6.83-3.93s-3-9.58-6.79-11.75-6.85-.45-6.86,3.91a15,15,0,0,0,6.82,11.77M392,380.1a15,15,0,0,0,6.79,11.79c3.79,2.16,6.88.43,6.86-3.91a14.86,14.86,0,0,0-6.73-11.72l-.06,0s0,0-.05,0c-3.74-2.15-6.8-.39-6.81,3.91M88.89,426.33c3.73,2.15,6.76.37,6.8-3.91a15.12,15.12,0,0,0-6.81-11.8c-3.77-2.18-6.85-.42-6.86,3.91a14.87,14.87,0,0,0,6.76,11.73s0,0,0,0l.06,0M337.57,642c3.8,2.19,6.85.45,6.87-3.87a14.92,14.92,0,0,0-6.79-11.79c-3.76-2.18-6.85-.45-6.86,3.87A15,15,0,0,0,337.57,642M80,201.1a15,15,0,0,0,6.78,11.79c3.79,2.19,6.85.41,6.89-3.89a15.16,15.16,0,0,0-6.81-11.81c-3.79-2.16-6.85-.42-6.86,3.91M64,315.61c7.92,4.58,14.38.94,14.4-8.17S72,287.22,64.05,282.64s-14.36-.88-14.38,8.23S56,311,64,315.61M424.88,524c7.93,4.58,14.38.9,14.38-8.19S432.9,495.6,425,491s-14.41-1-14.4,8.21S417,519.42,424.88,524M237.44,177.16c-6.75.82-8.93,9.73-4.85,19.85,2.68,6.66,7.4,12.21,12.25,15a12.24,12.24,0,0,0,7.45,1.9c6.79-.83,8.93-9.76,4.85-19.88-2.7-6.67-7.4-12.21-12.23-15a12.21,12.21,0,0,0-7.47-1.89m13.67,451.46c6.79-.81,8.94-9.73,4.85-19.85-2.67-6.68-7.38-12.23-12.22-15a12.18,12.18,0,0,0-7.44-1.87c-6.79.84-9,9.74-4.88,19.87,2.69,6.66,7.4,12.2,12.23,15a12.18,12.18,0,0,0,7.46,1.89m114.2-291.37c1.9-1.23,1.23-5.91-1.49-10.45a16.25,16.25,0,0,0-5.25-5.72c-1.22-.7-2.34-.88-3.14-.38l-105.94,67a24.74,24.74,0,0,0-5.1-4.05c-8.36-4.83-15.19-.9-15.21,8.71L83.41,329.6c-.81-.36-1.34.58-1.19,2a4.54,4.54,0,0,0,1.67,3.26l146,63c1.84,8.26,7.58,16.82,14.45,20.79,3.1,1.8,6,2.38,8.37,1.94l92.56,101.49a6.16,6.16,0,0,0,1.47,1.2c2.23,1.29,4.73.52,6.11-2.12a10.58,10.58,0,0,0-1.56-11L259.52,409.52a25.16,25.16,0,0,0-.64-4.91Zm-118.79-176C361.77,227.83,454.81,389,454.4,521.36s-94,185.73-209.21,119.26S36.93,412.9,37.31,280.55s94-185.76,209.21-119.26"/><path class="cls-7" d="M88.88,410.61a15.15,15.15,0,0,1,6.81,11.81c0,4.28-3.06,6.06-6.8,3.91l-.06,0,0,0A14.91,14.91,0,0,1,82,414.53c0-4.33,3.1-6.09,6.87-3.92"/><path class="cls-3" d="M358.57,321.09a16.12,16.12,0,0,1,5.25,5.71c2.73,4.54,3.4,9.22,1.49,10.45L258.88,404.61a25.16,25.16,0,0,1,.64,4.91l91.75,100.67a10.53,10.53,0,0,1,1.56,11c-1.38,2.64-3.86,3.41-6.1,2.12a6.16,6.16,0,0,1-1.47-1.2L252.7,420.58c-2.4.44-5.26-.14-8.37-1.94-6.87-4-12.61-12.54-14.45-20.79L84,335a4.49,4.49,0,0,1-1.8-3.33c-.15-1.45.38-2.39,1.19-2l145.77,62.83c0-9.64,6.85-13.57,15.22-8.74a25,25,0,0,1,5.09,4.05l105.94-67c.8-.5,1.92-.32,3.14.39"/><path class="cls-4" d="M229.75,397.72,79.17,332.8a4.65,4.65,0,0,1-1.86-3.44c-.15-1.49.4-2.46,1.23-2.09L229,392.13"/><path class="cls-7" d="M335.43,267.47a15,15,0,0,1,6.82,11.77c0,4.36-3.1,6.08-6.86,3.91a15,15,0,0,1-6.82-11.8c0-4.32,3.1-6.05,6.86-3.88"/><path class="cls-7" d="M398.92,376.26A14.89,14.89,0,0,1,405.65,388c0,4.34-3.07,6.07-6.86,3.91A15,15,0,0,1,392,380.1c0-4.3,3.07-6.06,6.81-3.91a.1.1,0,0,0,.05,0l.06,0"/><path class="cls-8" d="M291.38,790.59c-6.62,0-13.23,1.44-18.28,4.32L133.81,874.48c-10.29,5.88-10.37,15.65-.17,21.7L298,993.78c5.19,3.08,12.09,4.63,19,4.63,6.63,0,13.23-1.44,18.28-4.32l139.26-79.57c10.29-5.88,10.38-15.64.19-21.69l-164.37-97.6c-5.19-3.09-12.09-4.64-19-4.64"/></g></g></g></svg>