<svg xmlns="http://www.w3.org/2000/svg" viewBox="0 0 537.54 1090.42"><defs><style>.cls-1{isolation:isolate;}.cls-2{opacity:0.25;mix-blend-mode:multiply;}.cls-3{fill:#131718;}.cls-4{fill:#ee4e6a;}.cls-5{fill:#fff;}.cls-6{fill:#fdb936;}.cls-7{fill:#00babd;}.cls-8{fill:#ef4960;}.cls-9{fill:#eb5367;}.cls-10{fill:#fcb034;}.cls-11{fill:#340754;}</style></defs><title>invoice</title><g class="cls-1"><g id="Layer_2" data-name="Layer 2"><g id="invoice"><g class="cls-2"><path class="cls-3" d="M137.65,762.8l113.54,74,0-.1s.28.09,28.69,18.06l244.89,155s28.67,18.13,0,36.27l-44.11,36.33a60.89,60.89,0,0,1-29.73,8.07,50.9,50.9,0,0,1-27.61-8.07l-377-218.5s-28.68-18.14,0-36.27Z"/></g><polygon class="cls-4" points="340.64 832.81 355.8 824 432.04 868.03 416.89 876.83 340.64 832.81"/><polygon class="cls-5" points="346.79 829.31 361.94 820.5 425.97 857.48 410.82 866.28 346.79 829.31"/><polygon class="cls-4" points="340.89 745.19 356.04 736.39 355.8 824 340.64 832.81 340.89 745.19"/><polygon class="cls-5" points="347 755.73 362.14 746.92 361.94 820.5 346.79 829.31 347 755.73"/><polygon class="cls-4" points="347 755.73 362.14 746.92 426.18 783.89 411.03 792.7 347 755.73"/><polygon class="cls-4" points="411.03 792.7 426.18 783.89 425.97 857.48 410.82 866.28 411.03 792.7"/><path class="cls-6" d="M340.89,745.19l76.25,44-.25,87.61-76.24-44Zm69.93,121.09L411,792.7l-64-37-.2,73.58,64,37"/><polygon class="cls-5" points="417.14 789.22 432.29 780.41 432.04 868.03 416.89 876.83 417.14 789.22"/><polygon class="cls-5" points="340.89 745.19 356.04 736.39 432.29 780.41 417.14 789.22 340.89 745.19"/><polygon class="cls-4" points="341.25 619.04 356.4 610.24 432.65 654.26 417.5 663.06 341.25 619.04"/><polygon class="cls-5" points="347.39 615.54 362.54 606.74 426.57 643.71 411.43 652.51 347.39 615.54"/><polygon class="cls-4" points="341.5 531.42 356.65 522.62 356.4 610.24 341.25 619.04 341.5 531.42"/><polygon class="cls-5" points="347.6 541.96 362.75 533.16 362.54 606.74 347.39 615.54 347.6 541.96"/><polygon class="cls-4" points="347.6 541.96 362.75 533.16 426.78 570.13 411.63 578.93 347.6 541.96"/><polygon class="cls-4" points="411.63 578.93 426.78 570.13 426.57 643.71 411.43 652.51 411.63 578.93"/><polygon class="cls-5" points="341.5 531.42 356.65 522.62 432.9 566.64 417.75 575.45 341.5 531.42"/><polygon class="cls-5" points="417.75 575.45 432.9 566.64 432.65 654.26 417.5 663.06 417.75 575.45"/><polygon class="cls-4" points="341.84 412.27 356.99 403.47 433.23 447.49 418.08 456.29 341.84 412.27"/><polygon class="cls-5" points="347.98 408.77 363.13 399.97 427.16 436.94 412.01 445.74 347.98 408.77"/><polygon class="cls-4" points="342.09 324.66 357.24 315.86 356.99 403.47 341.84 412.27 342.09 324.66"/><polygon class="cls-5" points="348.19 335.19 363.34 326.39 363.13 399.97 347.98 408.77 348.19 335.19"/><polygon class="cls-4" points="348.19 335.19 363.34 326.39 427.37 363.36 412.22 372.16 348.19 335.19"/><polygon class="cls-4" points="412.22 372.16 427.37 363.36 427.16 436.94 412.01 445.74 412.22 372.16"/><polygon class="cls-6" points="418.33 368.68 433.48 359.88 433.23 447.49 418.08 456.29 418.33 368.68"/><polygon class="cls-6" points="342.09 324.66 357.24 315.86 433.48 359.88 418.33 368.68 342.09 324.66"/><polygon class="cls-5" points="411.03 792.7 410.82 866.28 346.79 829.31 347 755.73 411.03 792.7"/><polygon class="cls-5" points="411.63 578.93 411.43 652.51 347.39 615.54 347.6 541.96 411.63 578.93"/><path class="cls-6" d="M341.5,531.43l76.25,44-.25,87.61-76.25-44Zm69.93,121.08.2-73.58-64-37-.21,73.58,64,37"/><polygon class="cls-7" points="468.57 647.59 483.72 638.79 482.67 1007.57 467.52 1016.37 468.57 647.59"/><polygon class="cls-5" points="412.22 372.16 412.01 445.74 347.98 408.77 348.19 335.19 412.22 372.16"/><path class="cls-6" d="M342.09,324.66l76.24,44-.24,87.61-76.25-44ZM412,445.74l.21-73.58-64-37L348,408.77l64,37"/><polygon class="cls-7" points="469.61 278.78 484.76 269.98 483.72 638.79 468.57 647.59 469.61 278.78"/><polygon class="cls-8" points="2 8.8 17.15 0 484.76 269.98 469.61 278.78 2 8.8"/><g class="cls-1"><path class="cls-9" d="M433.33,780.27h0a2.72,2.72,0,0,1-1.5,3.67q-11.59,4.21-25.48,16.55-15,13.31-23.16,27.77a2.72,2.72,0,0,1-1.83,1.33l-3.16.62q-2.76.62-4.62,1.17a2.73,2.73,0,0,1-3.47-1.91q-.92-3.57-2.65-9.47l-1.64-5.37a131.75,131.75,0,0,0-6.55-17.85,39.52,39.52,0,0,0-4.51-7.42,2.77,2.77,0,0,1,1.35-4.34,9.58,9.58,0,0,1,8.08.78q4.55,2.63,10.06,20l.27.87a2.72,2.72,0,0,0,4.67,1,86.6,86.6,0,0,1,22.63-18.84q14.67-8.62,28.71-10.19A2.77,2.77,0,0,1,433.33,780.27Z"/></g><polygon class="cls-10" points="469.61 278.78 467.52 1016.37 0 761.77 2.13 8.8 469.61 278.78"/><polygon class="cls-11" points="290.09 364.86 290.05 379.53 54.4 243.48 54.45 228.81 290.09 364.86"/><polygon class="cls-11" points="290.09 468.15 290.05 482.83 54.4 346.78 54.45 332.1 290.09 468.15"/><polygon class="cls-11" points="170.79 498.91 170.75 513.59 55.7 447.17 55.75 432.49 170.79 498.91"/><polygon class="cls-11" points="242.26 593.39 242.22 608.07 56.23 500.68 56.27 486.01 242.26 593.39"/><g class="cls-1"><path class="cls-5" d="M419.4,364.93h0a3.24,3.24,0,0,1-1.79,4.38q-13.85,5-30.42,19.76Q369.28,405,359.53,422.23a3.19,3.19,0,0,1-2.18,1.58l-3.77.75c-2.2.49-4,.95-5.53,1.4a3.26,3.26,0,0,1-4.14-2.28q-1.1-4.28-3.16-11.32l-2-6.41A158,158,0,0,0,331,384.63a48.79,48.79,0,0,0-5.38-8.86,3.29,3.29,0,0,1,1.61-5.17,11.44,11.44,0,0,1,9.64.93q5.43,3.14,12,23.91l.33,1a3.25,3.25,0,0,0,5.58,1.16,103.17,103.17,0,0,1,27-22.49Q399.3,364.85,416.07,363A3.27,3.27,0,0,1,419.4,364.93Z"/></g><g class="cls-1"><path class="cls-5" d="M412.37,475.73h0a3.24,3.24,0,0,1-1.79,4.38q-13.84,5-30.43,19.77Q362.26,515.77,352.5,533a3.2,3.2,0,0,1-2.18,1.59l-3.78.74q-3.29.74-5.52,1.4a3.25,3.25,0,0,1-4.14-2.28c-.73-2.84-1.78-6.62-3.16-11.31l-2-6.41a157,157,0,0,0-7.82-21.32,48.45,48.45,0,0,0-5.38-8.86,3.29,3.29,0,0,1,1.61-5.17,11.44,11.44,0,0,1,9.64.92q5.43,3.14,12,23.92l.33,1a3.25,3.25,0,0,0,5.58,1.16,103.17,103.17,0,0,1,27-22.49q17.52-10.31,34.29-12.17A3.28,3.28,0,0,1,412.37,475.73Z"/></g><g class="cls-1"><path class="cls-5" d="M404.35,585h0a3.24,3.24,0,0,1-1.79,4.38q-13.85,5-30.42,19.77-17.91,15.89-27.66,33.16a3.19,3.19,0,0,1-2.18,1.58l-3.77.75q-3.3.74-5.53,1.39a3.25,3.25,0,0,1-4.14-2.27q-1.1-4.27-3.16-11.32l-2-6.41a157.49,157.49,0,0,0-7.82-21.32,48.45,48.45,0,0,0-5.38-8.86,3.29,3.29,0,0,1,1.61-5.17,11.44,11.44,0,0,1,9.64.92q5.43,3.14,12,23.92l.33,1a3.25,3.25,0,0,0,5.58,1.16,103.17,103.17,0,0,1,27-22.49Q384.25,585,401,583.09A3.28,3.28,0,0,1,404.35,585Z"/></g></g></g></g></svg>