<svg xmlns="http://www.w3.org/2000/svg" viewBox="0 0 391.89 423.11"><defs><style>.cls-1{fill:#c6c6c6;}.cls-2{fill:#00b2bb;}.cls-3{fill:#e94362;}.cls-4{fill:#44195e;}.cls-5{fill:#fff;}.cls-6{fill:#f9b122;}</style></defs><title>laptop</title><g id="Layer_2" data-name="Layer 2"><g id="laptop"><path class="cls-1" d="M217.59,196.18s-4.91-2.83-9.82,0l-89.33,51.62s-4.9,2.84,0,5.67l172.13,99.38s4.91,2.83,9.82,0l89.32-51.63s4.91-2.84,0-5.67Z"/><polygon class="cls-2" points="273.19 29.58 324.42 59.16 324.42 118.31 273.19 88.74 273.19 29.58"/><polygon class="cls-3" points="273.19 29.58 324.42 59.16 375.65 29.58 324.42 0 273.19 29.58"/><polygon class="cls-4" points="324.42 118.31 375.65 88.73 375.65 29.58 324.43 59.15 324.42 118.31"/><path class="cls-2" d="M280,349.23c4.7,2.71,4.72,7.16,0,9.87l-94.69,55c-4.68,2.72-12.35,2.72-17.05,0L3.57,319c-4.71-2.71-4.74-7.16-.06-9.88l94.69-55c4.68-2.72,12.35-2.72,17.06,0Z"/><path class="cls-4" d="M168.29,414.14l0,6.93L3.55,326l0-6.94ZM280,359.1l0,6.94-94.69,55,0-6.94ZM3.55,326l0-6.94c-2.37-1.36-3.55-3.17-3.55-5L0,321c0,1.81,1.18,3.61,3.55,5m280,28.23,0,6.93c0,1.78-1.17,3.56-3.49,4.91l0-6.94c2.32-1.35,3.48-3.12,3.5-4.9m-98.19,59.93,0,6.94c-4.68,2.72-12.35,2.72-17,0l0-6.93c4.7,2.71,12.37,2.71,17.05,0"/><polygon class="cls-4" points="160.11 121.3 165.58 120.94 127.47 241.18 122.01 241.54 160.11 121.3"/><polygon class="cls-4" points="284.16 335.16 289.63 334.8 127.48 241.18 122.01 241.54 284.16 335.16"/><path class="cls-4" d="M337.92,219.15,299.13,341.58c-1.35,4.26-4.44,6.87-7.79,7.09l-5.47.36c3.35-.22,6.44-2.83,7.78-7.09l38.8-122.43c1.92-6-.37-13.21-5.07-15.93L162.66,108.47a7.41,7.41,0,0,0-4.25-1l5.47-.36a7.41,7.41,0,0,1,4.25,1l164.72,95.11C337.56,205.93,339.84,213.1,337.92,219.15Z"/><path class="cls-2" d="M284.16,335.16l38.1-120.23L160.11,121.3,122,241.54Zm43.22-131.58c4.7,2.72,7,9.88,5.07,15.93l-38.8,122.43c-1.91,6-7.33,8.77-12,6.05l-164.72-95.1c-4.7-2.72-7-9.88-5.06-15.93l38.8-122.43c1.91-6,7.32-8.77,12-6.06Z"/><path class="cls-5" d="M217.57,371.17a4.36,4.36,0,0,0-3.89,0l-8.25,4.8a1.19,1.19,0,0,0,0,2.25l8.3,4.8a4.32,4.32,0,0,0,3.9,0l8.25-4.8a1.19,1.19,0,0,0,0-2.25Zm-6.68-3.85a1.19,1.19,0,0,1,0,2.25l-8.26,4.8a4.34,4.34,0,0,1-3.88,0L187,367.56a1.2,1.2,0,0,1,0-2.26l8.26-4.8a4.3,4.3,0,0,1,3.89,0ZM101.12,304a4.22,4.22,0,0,0-3.88,0L89,308.74A1.19,1.19,0,0,0,89,311l91.27,52.71a4.36,4.36,0,0,0,3.89,0l8.26-4.8a1.2,1.2,0,0,0,0-2.26Zm-6.68-3.87a1.2,1.2,0,0,1,0,2.26l-8.26,4.8a4.34,4.34,0,0,1-3.88,0l-11.81-6.82a1.19,1.19,0,0,1,0-2.25l8.26-4.79a4.22,4.22,0,0,1,3.88,0ZM67.66,284.62a4.32,4.32,0,0,0-3.9,0l-8.26,4.8a1.19,1.19,0,0,0,0,2.25l8.3,4.8a4.34,4.34,0,0,0,3.88,0l8.26-4.8a1.19,1.19,0,0,0,0-2.25Zm172.57,83a1.19,1.19,0,0,1,0,2.25L232,374.68a4.28,4.28,0,0,1-3.88,0l-8.31-4.8a1.18,1.18,0,0,1,0-2.24l8.26-4.81a4.36,4.36,0,0,1,3.89,0Zm-23.31-13.46a4.3,4.3,0,0,0-3.89,0l-8.25,4.8c-1.07.62-1.05,1.63,0,2.25l8.3,4.79a4.24,4.24,0,0,0,3.89,0l8.26-4.79a1.19,1.19,0,0,0,0-2.25Zm-6.68-3.86a1.19,1.19,0,0,1,0,2.25l-8.26,4.8a4.28,4.28,0,0,1-3.88,0l-8.3-4.79a1.2,1.2,0,0,1,0-2.26l8.25-4.8a4.35,4.35,0,0,1,3.9,0Zm-23.3-13.45a4.28,4.28,0,0,0-3.88,0l-8.26,4.8a1.19,1.19,0,0,0,0,2.25l8.31,4.79a4.28,4.28,0,0,0,3.88,0l8.26-4.79a1.2,1.2,0,0,0,0-2.26ZM180.26,333a1.19,1.19,0,0,1,0,2.25l-8.26,4.8a4.3,4.3,0,0,1-3.89,0l-8.31-4.8a1.19,1.19,0,0,1,0-2.25l8.25-4.8a4.3,4.3,0,0,1,3.89,0ZM157,319.56a4.3,4.3,0,0,0-3.89,0l-8.26,4.8a1.19,1.19,0,0,0,0,2.25l8.31,4.79a4.28,4.28,0,0,0,3.88,0l8.26-4.79a1.19,1.19,0,0,0,0-2.25Zm-6.68-3.86a1.19,1.19,0,0,1,0,2.25l-8.26,4.8a4.28,4.28,0,0,1-3.88,0l-8.31-4.8a1.19,1.19,0,0,1,0-2.25l8.26-4.79a4.22,4.22,0,0,1,3.88,0ZM127,302.25a4.3,4.3,0,0,0-3.89,0l-8.25,4.8a1.19,1.19,0,0,0,0,2.25l8.3,4.79a4.3,4.3,0,0,0,3.89,0l8.26-4.8a1.19,1.19,0,0,0,0-2.25Zm-6.68-3.86a1.19,1.19,0,0,1,0,2.25l-8.26,4.8a4.28,4.28,0,0,1-3.88,0l-8.31-4.8a1.19,1.19,0,0,1,0-2.25l8.26-4.8a4.3,4.3,0,0,1,3.89,0ZM97,284.94a4.24,4.24,0,0,0-3.89,0l-8.25,4.8a1.18,1.18,0,0,0,0,2.24l8.32,4.8a4.28,4.28,0,0,0,3.88,0l8.25-4.8a1.18,1.18,0,0,0,0-2.24Zm-6.68-3.87a1.2,1.2,0,0,1,0,2.26l-8.26,4.8a4.31,4.31,0,0,1-3.88,0l-8.3-4.8a1.2,1.2,0,0,1,0-2.26l8.27-4.79a4.31,4.31,0,0,1,3.88,0Zm147.32,68.45a4.3,4.3,0,0,0-3.89,0l-8.25,4.79a1.19,1.19,0,0,0,0,2.25l16.95,9.78a4.28,4.28,0,0,0,3.88,0l8.25-4.79a1.19,1.19,0,0,0,0-2.25ZM268.92,351a1.19,1.19,0,0,1,0,2.25l-8.25,4.8a4.34,4.34,0,0,1-3.88,0l-8.31-4.8a1.19,1.19,0,0,1,0-2.25l8.25-4.8a4.28,4.28,0,0,1,3.88,0Zm-46.29-10.1a4.31,4.31,0,0,0-3.88,0l-8.25,4.8a1.19,1.19,0,0,0,0,2.25l8.32,4.8a4.34,4.34,0,0,0,3.88,0l8.25-4.8a1.19,1.19,0,0,0,0-2.25Zm31.3,1.45a1.18,1.18,0,0,1,0,2.24l-8.25,4.8a4.3,4.3,0,0,1-3.89,0l-8.31-4.8a1.19,1.19,0,0,1,0-2.25l8.25-4.8a4.33,4.33,0,0,1,3.89,0Zm-46.28-10.1a4.3,4.3,0,0,0-3.89,0L195.51,337a1.19,1.19,0,0,0,0,2.25l8.3,4.79a4.24,4.24,0,0,0,3.89,0l8.24-4.79a1.18,1.18,0,0,0,0-2.24Zm31.28,1.43a1.2,1.2,0,0,1,0,2.26l-8.26,4.79a4.28,4.28,0,0,1-3.88,0l-8.31-4.79a1.2,1.2,0,0,1,0-2.26l8.25-4.79a4.31,4.31,0,0,1,3.88,0Zm-46.27-10.09a4.36,4.36,0,0,0-3.89,0l-8.25,4.79a1.2,1.2,0,0,0,0,2.26l8.3,4.79a4.28,4.28,0,0,0,3.88,0L201,330.6a1.2,1.2,0,0,0,0-2.26ZM223.94,325a1.19,1.19,0,0,1,0,2.25L215.7,332a4.28,4.28,0,0,1-3.88,0l-8.31-4.8a1.19,1.19,0,0,1,0-2.25l8.25-4.8a4.34,4.34,0,0,1,3.88,0Zm-46.28-10.1a4.36,4.36,0,0,0-3.89,0l-8.25,4.8a1.19,1.19,0,0,0,0,2.25l8.31,4.8a4.28,4.28,0,0,0,3.88,0L186,322a1.2,1.2,0,0,0,0-2.26ZM209,316.34a1.19,1.19,0,0,1,0,2.25l-8.26,4.79a4.25,4.25,0,0,1-3.88,0l-8.31-4.8a1.18,1.18,0,0,1,0-2.24l8.25-4.8a4.28,4.28,0,0,1,3.88,0Zm-46.28-10.1a4.3,4.3,0,0,0-3.89,0L150.53,311a1.19,1.19,0,0,0,0,2.25l8.3,4.8a4.3,4.3,0,0,0,3.89,0l8.25-4.79a1.19,1.19,0,0,0,0-2.25ZM194,307.68a1.19,1.19,0,0,1,0,2.25l-8.25,4.8a4.28,4.28,0,0,1-3.88,0l-8.32-4.8a1.19,1.19,0,0,1,0-2.25l8.25-4.8a4.33,4.33,0,0,1,3.89,0Zm-46.28-10.09a4.28,4.28,0,0,0-3.88,0l-8.25,4.79a1.19,1.19,0,0,0,0,2.25l8.31,4.8a4.34,4.34,0,0,0,3.88,0l8.25-4.8a1.19,1.19,0,0,0,0-2.25ZM179,299a1.19,1.19,0,0,1,0,2.25l-8.25,4.79a4.3,4.3,0,0,1-3.89,0l-8.3-4.79a1.19,1.19,0,0,1,0-2.25l8.26-4.8a4.28,4.28,0,0,1,3.88,0Zm-46.28-10.1a4.3,4.3,0,0,0-3.89,0l-8.25,4.8a1.18,1.18,0,0,0,0,2.24l8.31,4.8a4.28,4.28,0,0,0,3.88,0L141,296a1.18,1.18,0,0,0,0-2.24ZM164,290.37a1.19,1.19,0,0,1,0,2.25l-8.26,4.8a4.34,4.34,0,0,1-3.88,0l-8.31-4.8a1.19,1.19,0,0,1,0-2.25l8.26-4.79a4.22,4.22,0,0,1,3.88,0ZM117.7,280.28a4.3,4.3,0,0,0-3.89,0l-8.25,4.79a1.19,1.19,0,0,0,0,2.25l8.31,4.8a4.3,4.3,0,0,0,3.89,0l8.25-4.8a1.19,1.19,0,0,0,0-2.25ZM149,281.71a1.2,1.2,0,0,1,0,2.26l-8.25,4.79a4.33,4.33,0,0,1-3.89,0l-8.31-4.8a1.19,1.19,0,0,1,0-2.25l8.25-4.79a4.28,4.28,0,0,1,3.88,0ZM96.35,268a4.33,4.33,0,0,0-3.89,0l-8.25,4.8a1.19,1.19,0,0,0,0,2.25l14.67,8.47a4.3,4.3,0,0,0,3.89,0l8.25-4.79a1.2,1.2,0,0,0,0-2.26ZM134,273.06a1.19,1.19,0,0,1,0,2.25l-8.26,4.8a4.28,4.28,0,0,1-3.88,0l-8.31-4.8a1.19,1.19,0,0,1,0-2.25l8.25-4.8a4.28,4.28,0,0,1,3.88,0Zm-15-8.66a1.19,1.19,0,0,1,0,2.25l-8.25,4.8a4.3,4.3,0,0,1-3.89,0l-8.31-4.8a1.19,1.19,0,0,1,0-2.25l8.26-4.79a4.27,4.27,0,0,1,3.89,0Z"/><path class="cls-5" d="M101.52,324.36a4.3,4.3,0,0,0-3.89,0l-30,17.45a1.19,1.19,0,0,0,0,2.25l55.64,32.13a4.3,4.3,0,0,0,3.89,0l30-17.45a1.2,1.2,0,0,0,0-2.26Z"/><path class="cls-4" d="M213.74,383v1.74a4.36,4.36,0,0,0,3.89,0V383a4.32,4.32,0,0,1-3.9,0m0,0v1.74l-8.31-4.8v-1.74Zm3.9,0v1.74l8.26-4.8v-1.74Zm-13-4.19v-1.74a1.38,1.38,0,0,0,.8,1.13V380a1.38,1.38,0,0,1-.81-1.13m21.27-.61V380a1.37,1.37,0,0,0,.79-1.12V377.1a1.34,1.34,0,0,1-.79,1.12m-23.25-3.85v1.73a4.31,4.31,0,0,1-3.88,0v-1.73a4.34,4.34,0,0,0,3.88,0M187,367.56v1.73l11.79,6.81v-1.73Zm23.94,2v1.73l-8.26,4.8v-1.73Zm0,0v1.73a1.37,1.37,0,0,0,.8-1.12v-1.73a1.36,1.36,0,0,1-.79,1.12m-24.76-1.42v-1.73a1.4,1.4,0,0,0,.81,1.14v1.73a1.4,1.4,0,0,1-.82-1.14m-5.87-4.45v1.73a4.31,4.31,0,0,0,3.88,0V363.7a4.36,4.36,0,0,1-3.89,0m0,0v1.73L89,312.73V311Zm3.89,0v1.73l8.26-4.8V358.9Zm9.05-5.92v1.73a1.35,1.35,0,0,1-.79,1.12V358.9a1.36,1.36,0,0,0,.8-1.12M89,312.73V311a1.34,1.34,0,0,1-.81-1.13v1.74a1.37,1.37,0,0,0,.81,1.13m-2.79-5.59v1.73a4.28,4.28,0,0,1-3.88,0v-1.73a4.34,4.34,0,0,0,3.88,0m-15.69-6.82v1.74l11.8,6.81v-1.73Zm23.95,2v1.73l-8.26,4.8v-1.73Zm0,0v1.73a1.35,1.35,0,0,0,.8-1.12v-1.73a1.36,1.36,0,0,1-.79,1.12M69.7,300.92v-1.73a1.37,1.37,0,0,0,.81,1.13v1.74a1.38,1.38,0,0,1-.81-1.14m-5.87-4.45v1.73a4.31,4.31,0,0,0,3.88,0v-1.73a4.34,4.34,0,0,1-3.88,0m0,0v1.73l-8.31-4.8v-1.73Zm3.88,0v1.73L76,293.4v-1.73Zm-13-4.2v-1.74a1.4,1.4,0,0,0,.82,1.14v1.73a1.37,1.37,0,0,1-.81-1.13m21.26-.6v1.73a1.37,1.37,0,0,0,.8-1.12v-1.73a1.37,1.37,0,0,1-.8,1.12m156,83v1.74a4.3,4.3,0,0,1-3.89,0v-1.74a4.28,4.28,0,0,0,3.88,0m-12.19-4.8v1.74l8.31,4.8v-1.74Zm20.45,0v1.73l-8.25,4.8v-1.74Zm-20.46,1.73v-1.74a1.37,1.37,0,0,1-.81-1.13v1.74a1.37,1.37,0,0,0,.81,1.13M241,368.76v1.74a1.37,1.37,0,0,1-.8,1.12v-1.73a1.36,1.36,0,0,0,.79-1.13M213.1,366v1.74a4.28,4.28,0,0,0,3.88,0V366a4.24,4.24,0,0,1-3.89,0m0,0v1.74l-8.31-4.8v-1.73Zm3.89,0v1.74l8.26-4.8v-1.73Zm-13-4.19v-1.74a1.35,1.35,0,0,0,.81,1.14V363a1.37,1.37,0,0,1-.81-1.13m21.27-.6V363a1.36,1.36,0,0,0,.8-1.11v-1.74a1.39,1.39,0,0,1-.79,1.12M202,357.37v1.73a4.28,4.28,0,0,1-3.88,0v-1.73a4.28,4.28,0,0,0,3.88,0m-12.18-4.79v1.73l8.3,4.79v-1.73Zm20.44,0v1.73L202,359.1v-1.73Zm-20.44,1.74v-1.73a1.39,1.39,0,0,1-.82-1.14v1.73a1.38,1.38,0,0,0,.82,1.14m21.24-2.86v1.74a1.35,1.35,0,0,1-.8,1.11v-1.73a1.37,1.37,0,0,0,.8-1.12m-27.93-2.74v1.74a4.3,4.3,0,0,0,3.89,0v-1.74a4.28,4.28,0,0,1-3.88,0m0,0v1.74l-8.3-4.8v-1.73Zm3.88,0v1.74l8.25-4.8v-1.73Zm-13-4.19v-1.73a1.37,1.37,0,0,0,.81,1.13v1.73a1.37,1.37,0,0,1-.81-1.13m21.26-.6v1.73a1.34,1.34,0,0,0,.8-1.12V342.8a1.4,1.4,0,0,1-.8,1.12M172,340.06v1.73a4.28,4.28,0,0,1-3.88,0v-1.73a4.3,4.3,0,0,0,3.89,0m-12.2-4.8V337l8.31,4.79v-1.73Zm20.45,0V337L172,341.79v-1.73ZM159.82,337v-1.74a1.37,1.37,0,0,1-.81-1.13v1.73a1.38,1.38,0,0,0,.81,1.14m21.25-2.85v1.73a1.35,1.35,0,0,1-.79,1.12v-1.74a1.37,1.37,0,0,0,.8-1.11m-27.93-2.75v1.74a4.28,4.28,0,0,0,3.88,0V331.4a4.28,4.28,0,0,1-3.88,0m0,0v1.74l-8.32-4.8v-1.73Zm3.88,0v1.74l8.26-4.8v-1.73Zm-13-4.19v-1.74a1.37,1.37,0,0,0,.81,1.14v1.73a1.36,1.36,0,0,1-.8-1.13m21.26-.6v1.73a1.37,1.37,0,0,0,.79-1.12v-1.73a1.38,1.38,0,0,1-.8,1.12M142,322.75v1.73a4.28,4.28,0,0,1-3.88,0v-1.73a4.3,4.3,0,0,0,3.89,0M129.84,318v1.74l8.31,4.79v-1.73Zm20.45,0v1.73l-8.27,4.8v-1.73Zm-20.46,1.74V318a1.37,1.37,0,0,1-.81-1.13v1.73a1.34,1.34,0,0,0,.8,1.14m21.25-2.86v1.74a1.36,1.36,0,0,1-.79,1.11V318a1.37,1.37,0,0,0,.79-1.12m-27.93-2.74v1.74a4.28,4.28,0,0,0,3.88,0v-1.74a4.3,4.3,0,0,1-3.89,0m0,0v1.74l-8.31-4.8V309.3Zm3.89,0v1.74l8.26-4.8v-1.74Zm-13-4.19v-1.74a1.37,1.37,0,0,0,.81,1.14V311a1.36,1.36,0,0,1-.8-1.13m21.26-.61V311a1.38,1.38,0,0,0,.8-1.12v-1.73a1.36,1.36,0,0,1-.79,1.11m-23.25-3.85v1.73a4.3,4.3,0,0,1-3.89,0v-1.73a4.31,4.31,0,0,0,3.88,0m-12.19-4.8v1.73l8.31,4.8v-1.73Zm20.45,0v1.73l-8.25,4.8v-1.73Zm-20.46,1.73v-1.73a1.35,1.35,0,0,1-.81-1.13v1.73a1.37,1.37,0,0,0,.81,1.13m21.25-2.84v1.73a1.34,1.34,0,0,1-.8,1.11v-1.73a1.34,1.34,0,0,0,.79-1.11m-27.92-2.75v1.74a4.28,4.28,0,0,0,3.88,0v-1.74a4.28,4.28,0,0,1-3.88,0m0,0v1.74l-8.31-4.8V292Zm3.88,0v1.74l8.26-4.8V292Zm-13-4.19v-1.74a1.37,1.37,0,0,0,.81,1.13v1.74a1.35,1.35,0,0,1-.81-1.13m21.26-.61v1.74a1.37,1.37,0,0,0,.8-1.12v-1.73a1.35,1.35,0,0,1-.8,1.11m-23.25-3.85v1.73a4.3,4.3,0,0,1-3.89,0v-1.73a4.31,4.31,0,0,0,3.88,0m-12.18-4.8v1.74l8.3,4.79v-1.73Zm20.44,0v1.73l-8.26,4.8v-1.73Zm-20.45,1.74v-1.74a1.37,1.37,0,0,1-.82-1.14v1.74a1.38,1.38,0,0,0,.81,1.14m21.25-2.86v1.73a1.37,1.37,0,0,1-.8,1.12v-1.73a1.37,1.37,0,0,0,.8-1.12m151.33,84.13v1.74a4.33,4.33,0,0,0,3.89,0v-1.74a4.28,4.28,0,0,1-3.88,0m0,0v1.74l-16.94-9.79v-1.73Zm3.88,0v1.74l8.25-4.8v-1.73Zm9-5.91c0,.58,0,1.16,0,1.74a1.34,1.34,0,0,1-.79,1.11v-1.73a1.38,1.38,0,0,0,.8-1.12m-29.88-2.14v-1.73a1.37,1.37,0,0,1-.81-1.13v1.73a1.36,1.36,0,0,0,.81,1.13m35.18-.28v1.73a4.33,4.33,0,0,1-3.89,0V358a4.34,4.34,0,0,0,3.88,0m-12.19-4.8v1.73l8.31,4.8V358Zm20.44,0v1.73l-8.25,4.8V358Zm-20.45,1.73v-1.73a1.36,1.36,0,0,1-.81-1.14c0,.58,0,1.16,0,1.74a1.37,1.37,0,0,0,.81,1.13m21.24-2.85v1.74a1.34,1.34,0,0,1-.79,1.11v-1.73a1.35,1.35,0,0,0,.79-1.12m-50.89.62v1.73a4.28,4.28,0,0,0,3.88,0v-1.73a4.34,4.34,0,0,1-3.88,0m0,0v1.73l-8.31-4.8v-1.73Zm3.88,0v1.73l8.25-4.8v-1.73Zm-13-4.2v-1.74a1.37,1.37,0,0,0,.8,1.14v1.73a1.37,1.37,0,0,1-.81-1.13m21.26-.6v1.73a1.36,1.36,0,0,0,.8-1.11v-1.74a1.35,1.35,0,0,1-.79,1.12m14.73,1.44v1.73a4.28,4.28,0,0,1-3.88,0v-1.73a4.3,4.3,0,0,0,3.89,0m-12.2-4.8v1.74l8.31,4.79v-1.73Zm20.45,0v1.74l-8.26,4.79v-1.73Zm-20.45,1.74v-1.74a1.38,1.38,0,0,1-.81-1.13v1.73a1.4,1.4,0,0,0,.81,1.14m21.25-2.86c0,.58,0,1.16,0,1.74a1.35,1.35,0,0,1-.79,1.12v-1.74a1.35,1.35,0,0,0,.8-1.12m-50.91.61v1.74a4.28,4.28,0,0,0,3.88,0V344a4.24,4.24,0,0,1-3.89,0m0,0v1.74L195.52,341v-1.74Zm3.89,0v1.74L216,341v-1.74Zm-13-4.19v-1.73a1.37,1.37,0,0,0,.81,1.13V341a1.37,1.37,0,0,1-.81-1.14m21.25-.6V341a1.35,1.35,0,0,0,.79-1.12v-1.73a1.36,1.36,0,0,1-.8,1.11m14.73,1.44v1.74a4.36,4.36,0,0,1-3.89,0v-1.74a4.28,4.28,0,0,0,3.88,0M218.5,335.9v1.73l8.3,4.8v-1.74Zm20.45,0v1.73l-8.25,4.8v-1.74Zm-20.45,1.73V335.9a1.38,1.38,0,0,1-.81-1.14v1.74a1.37,1.37,0,0,0,.81,1.13m21.24-2.85v1.73a1.39,1.39,0,0,1-.8,1.12V335.9a1.39,1.39,0,0,0,.79-1.12m-50.91.61v1.74a4.3,4.3,0,0,0,3.89,0v-1.74a4.3,4.3,0,0,1-3.89,0m0,0v1.74l-8.3-4.8v-1.74Zm3.89,0v1.74l8.25-4.8v-1.74Zm-13-4.19v-1.74a1.35,1.35,0,0,0,.82,1.13v1.74a1.35,1.35,0,0,1-.81-1.13m21.25-.61v1.74a1.35,1.35,0,0,0,.79-1.11v-1.74a1.35,1.35,0,0,1-.8,1.11M215.7,332v1.73a4.3,4.3,0,0,1-3.89,0V332a4.28,4.28,0,0,0,3.88,0m-12.19-4.8V329l8.3,4.8V332Zm20.44,0V329l-8.25,4.8V332ZM203.51,329v-1.73a1.37,1.37,0,0,1-.81-1.13v1.73a1.37,1.37,0,0,0,.81,1.13m21.24-2.85v1.74A1.35,1.35,0,0,1,224,329v-1.73a1.37,1.37,0,0,0,.8-1.12m-50.9.62v1.73a4.3,4.3,0,0,0,3.89,0v-1.73a4.28,4.28,0,0,1-3.88,0m0,0v1.73l-8.3-4.79v-1.74Zm3.88,0v1.73l8.25-4.79V322Zm-13-4.2v-1.73a1.37,1.37,0,0,0,.81,1.13v1.74a1.36,1.36,0,0,1-.81-1.14M186,322v1.73a1.35,1.35,0,0,0,.79-1.12v-1.73A1.38,1.38,0,0,1,186,322m14.73,1.43v1.74a4.33,4.33,0,0,1-3.89,0v-1.74a4.25,4.25,0,0,0,3.88,0m-12.19-4.8v1.74l8.31,4.8v-1.74Zm20.45,0v1.73l-8.25,4.8v-1.74Zm-20.46,1.73v-1.74a1.34,1.34,0,0,1-.81-1.13v1.74a1.38,1.38,0,0,0,.81,1.13m21.25-2.85v1.74a1.39,1.39,0,0,1-.8,1.11v-1.73a1.35,1.35,0,0,0,.79-1.12m-50.9.61v1.73a4.24,4.24,0,0,0,3.89,0v-1.73a4.28,4.28,0,0,1-3.88,0m0,0v1.73L150.54,315v-1.74Zm3.88,0v1.73L171,315v-1.73Zm-13-4.2v-1.73a1.37,1.37,0,0,0,.81,1.13V315a1.38,1.38,0,0,1-.81-1.14m21.26-.59V315a1.36,1.36,0,0,0,.8-1.11v-1.74a1.37,1.37,0,0,1-.8,1.12m14.73,1.44v1.73a4.28,4.28,0,0,1-3.88,0v-1.73a4.28,4.28,0,0,0,3.88,0m-12.2-4.8v1.73l8.31,4.8v-1.73Zm20.45,0v1.73l-8.26,4.8v-1.73Zm-20.45,1.73v-1.73a1.38,1.38,0,0,1-.8-1.13v1.73a1.36,1.36,0,0,0,.8,1.13m21.25-2.85v1.74a1.35,1.35,0,0,1-.79,1.11v-1.73a1.37,1.37,0,0,0,.8-1.12m-50.9.62v1.73a4.28,4.28,0,0,0,3.88,0v-1.73a4.34,4.34,0,0,1-3.88,0m0,0v1.73l-8.3-4.8v-1.73Zm3.88,0v1.73l8.25-4.8v-1.73Zm-13-4.19V303.5a1.37,1.37,0,0,0,.81,1.13v1.73a1.35,1.35,0,0,1-.81-1.12m21.25-.61v1.73a1.33,1.33,0,0,0,.8-1.11v-1.74a1.35,1.35,0,0,1-.8,1.12m14.73,1.44v1.73a4.25,4.25,0,0,1-3.88,0v-1.73a4.3,4.3,0,0,0,3.89,0m-12.19-4.79V303l8.31,4.79v-1.73Zm20.44,0V303l-8.25,4.79v-1.73ZM158.53,303v-1.73a1.4,1.4,0,0,1-.81-1.14v1.74a1.37,1.37,0,0,0,.81,1.13m21.25-2.85v1.73A1.34,1.34,0,0,1,179,303v-1.73a1.39,1.39,0,0,0,.8-1.12m-50.9.61v1.73a4.28,4.28,0,0,0,3.88,0v-1.73a4.28,4.28,0,0,1-3.88,0m0,0v1.73l-8.31-4.79V296Zm3.88,0v1.73l8.25-4.79V296Zm-13-4.19v-1.74a1.37,1.37,0,0,0,.81,1.13v1.74a1.37,1.37,0,0,1-.81-1.13M141,296v1.74a1.37,1.37,0,0,0,.8-1.12v-1.73A1.33,1.33,0,0,1,141,296m14.73,1.45v1.73a4.28,4.28,0,0,1-3.88,0v-1.73a4.34,4.34,0,0,0,3.88,0m-12.19-4.8v1.73l8.31,4.8v-1.73Zm20.45,0v1.73l-8.25,4.8v-1.73Zm-20.45,1.73v-1.73a1.36,1.36,0,0,1-.8-1.13v1.73a1.36,1.36,0,0,0,.8,1.13m21.25-2.85v1.74a1.36,1.36,0,0,1-.8,1.11v-1.73a1.39,1.39,0,0,0,.8-1.12m-50.91.62v1.73a4.28,4.28,0,0,0,3.88,0v-1.73a4.3,4.3,0,0,1-3.89,0m0,0v1.73l-8.31-4.8v-1.73Zm3.89,0v1.73l8.26-4.79v-1.74Zm-13-4.2v-1.74a1.38,1.38,0,0,0,.81,1.14v1.73a1.37,1.37,0,0,1-.81-1.13m21.26-.6v1.74a1.36,1.36,0,0,0,.79-1.12v-1.73a1.39,1.39,0,0,1-.8,1.11m14.73,1.44v1.74a4.3,4.3,0,0,1-3.89,0v-1.74a4.3,4.3,0,0,0,3.89,0m-12.2-4.8v1.74l8.31,4.8v-1.74ZM149,284v1.73l-8.25,4.8v-1.74Zm-20.45,1.73V284a1.36,1.36,0,0,1-.8-1.13v1.74a1.37,1.37,0,0,0,.81,1.13m21.25-2.85v1.73a1.37,1.37,0,0,1-.79,1.12V284a1.37,1.37,0,0,0,.8-1.12m-50.91.61v1.73a4.28,4.28,0,0,0,3.88,0v-1.73a4.3,4.3,0,0,1-3.89,0m0,0v1.73l-14.67-8.47V275Zm3.89,0v1.73L111,280.4v-1.73Zm9-5.91v1.73a1.35,1.35,0,0,1-.8,1.12v-1.73a1.35,1.35,0,0,0,.79-1.12m-27.6-.83V275a1.37,1.37,0,0,1-.81-1.14v1.73a1.36,1.36,0,0,0,.81,1.14m41.53,3.38v1.74a4.28,4.28,0,0,1-3.88,0V280.1a4.22,4.22,0,0,0,3.88,0m-12.19-4.79V277l8.32,4.8V280.1Zm20.45,0v1.74l-8.25,4.79V280.1ZM113.55,277v-1.73a1.4,1.4,0,0,1-.81-1.14v1.74a1.38,1.38,0,0,0,.8,1.13m21.26-2.85v1.74a1.38,1.38,0,0,1-.8,1.12v-1.74a1.39,1.39,0,0,0,.8-1.12m-27.93-2.74v1.73a4.28,4.28,0,0,0,3.88,0l0-1.73a4.3,4.3,0,0,1-3.89,0m0,0v1.73l-8.3-4.79v-1.74Zm3.89,0,0,1.73,8.26-4.79v-1.74Zm-13-4.2v-1.73a1.37,1.37,0,0,0,.81,1.13v1.74a1.39,1.39,0,0,1-.82-1.14m22.07-1.71,0,1.73a1.35,1.35,0,0,1-.79,1.12v-1.74a1.39,1.39,0,0,0,.8-1.11"/><path class="cls-4" d="M158,357.62a1.39,1.39,0,0,1-.8,1.12l-30,17.45a4.3,4.3,0,0,1-3.89,0L67.61,344.06a1.37,1.37,0,0,1-.81-1.13v1.73a1.37,1.37,0,0,0,.81,1.14l55.63,32.13a4.36,4.36,0,0,0,3.89,0l30-17.46a1.36,1.36,0,0,0,.79-1.12Z"/><polygon class="cls-5" points="200.67 210.04 226.29 224.83 226.29 254.41 200.67 239.62 200.67 210.04"/><polygon class="cls-6" points="200.67 210.04 226.29 224.83 251.91 210.04 226.29 195.25 200.67 210.04"/><polygon class="cls-4" points="226.29 254.41 251.91 239.62 251.91 210.04 226.29 224.82 226.29 254.41"/><polygon class="cls-3" points="229.77 131.21 268.19 153.39 268.19 197.76 229.77 175.58 229.77 131.21"/><polygon class="cls-6" points="229.77 131.21 268.19 153.39 306.62 131.21 268.19 109.02 229.77 131.21"/><polygon class="cls-4" points="268.19 197.76 306.62 175.58 306.62 131.21 268.19 153.39 268.19 197.76"/></g></g></svg>