<svg xmlns="http://www.w3.org/2000/svg" xmlns:xlink="http://www.w3.org/1999/xlink" viewBox="0 0 576.69 1675.02"><defs><style>.cls-1{fill:#fbb034;}.cls-2{fill:#f04e69;}.cls-3{fill:#401663;}.cls-4{fill:#00babe;}.cls-5{clip-path:url(#clip-path);}.cls-6{clip-path:url(#clip-path-2);}.cls-7{opacity:0.25;}.cls-8{fill:#231f20;}.cls-9{fill:#fff;}</style><clipPath id="clip-path"><path class="cls-1" d="M570.84,730.62,518,699.92c-9.93-5.77-29.84-44.44-56.91-60.18l52.82,30.7C541,686.17,560.91,724.85,570.84,730.62Z"/></clipPath><clipPath id="clip-path-2"><path class="cls-2" d="M456.52,512l52.82,30.7c-31.15-18.1-75.09-26.45-77.82-27l-52.83-30.7C381.43,485.58,425.36,493.93,456.52,512Z"/></clipPath></defs><title>rocket</title><g id="Layer_2" data-name="Layer 2"><g id="ARTWORK"><g id="rocket"><polygon class="cls-3" points="228.29 1076.97 245 1163.61 167.86 1143.79 151.14 1057.16 228.29 1076.97"/><polygon class="cls-2" points="228.29 1076.97 290.95 1029.46 307.68 1116.11 245 1163.61 228.29 1076.97"/><polygon class="cls-4" points="151.09 1056.89 213.94 1009.6 291 1029.73 228.16 1077 151.09 1056.89"/><polygon class="cls-3" points="268.31 1351.61 261.07 1404.11 221.03 1377.93 228.26 1325.43 268.31 1351.61"/><polygon class="cls-2" points="268.31 1351.61 313.12 1336.69 305.9 1389.2 261.07 1404.11 268.31 1351.61"/><polygon class="cls-4" points="228.26 1325.43 273.08 1310.51 313.12 1336.69 268.31 1351.61 228.26 1325.43"/><polygon class="cls-3" points="372.13 1226 358.79 1295.21 420.4 1279.37 433.76 1210.17 372.13 1226"/><polygon class="cls-2" points="372.13 1226 322.08 1188.05 308.72 1257.26 358.79 1295.21 372.13 1226"/><polygon class="cls-4" points="433.76 1210.17 383.7 1172.2 322.08 1188.05 372.13 1226 433.76 1210.17"/><path class="cls-1" d="M570.84,730.62,518,699.92c-9.93-5.77-29.84-44.44-56.91-60.18l52.82,30.7C541,686.17,560.91,724.85,570.84,730.62Z"/><g class="cls-5"><path class="cls-1" d="M570.84,730.62,518,699.92c-9.93-5.77-29.84-44.44-56.91-60.18l52.82,30.7c27.08,15.73,47,54.41,56.91,60.18"/></g><path class="cls-4" d="M431.52,515.76c3.27.62,65.43,12.43,94.23,38.73,28.54,26,58.26,165.77,49.32,175.89a3.2,3.2,0,0,1-.76.64c-9.75,5.63-38.61-63.38-79.55-67.07-45.93-4.12-65.2,1.93-66.22,2.25Z"/><path class="cls-2" d="M456.52,512l52.82,30.7c-31.15-18.1-75.09-26.45-77.82-27l-52.83-30.7C381.43,485.58,425.36,493.93,456.52,512Z"/><g class="cls-6"><path class="cls-2" d="M431.52,515.76l-52.83-30.7c1.37.26,13.06,2.48,28.29,6.9l52.83,30.7c-15.24-4.42-26.92-6.64-28.29-6.9"/><path class="cls-2" d="M459.81,522.66,407,492a281,281,0,0,1,29.61,10.31L489.42,533a282.61,282.61,0,0,0-29.61-10.31"/><path class="cls-2" d="M489.42,533l-52.83-30.7a175.88,175.88,0,0,1,18.27,8.82l52.83,30.7A174.84,174.84,0,0,0,489.42,533"/><path class="cls-2" d="M507.69,541.79l-52.83-30.7,1.66.94,52.82,30.7-1.65-.94"/></g><polygon class="cls-4" points="428.54 666.2 375.72 635.5 378.69 485.06 431.52 515.76 428.54 666.2"/><g class="cls-7"><ellipse class="cls-8" cx="262.9" cy="1567.22" rx="107.8" ry="186.12" transform="translate(-1305.06 1825.67) rotate(-89.84)"/></g><path class="cls-2" d="M314.54,64.44c44.66-25.78,143,113.92,143.56,326.9s-63.86,419.55-67.25,430.42L316.05,865l-69.86,40.33c-3.45-6.92-68.89-138.49-69.49-351.47S269.87,90.23,314.54,64.44Z"/><path class="cls-1" d="M176.85,537.67q.09-5.16.26-10.33c0-.88,0-1.75.08-2.63q.23-6.32.55-12.65c0-1,.11-2,.16-3,.19-3.39.39-6.78.62-10.18.07-1.16.15-2.32.23-3.49q.45-6.37,1-12.77c0-.42.08-.83.11-1.25q.51-5.85,1.08-11.7c.12-1.22.24-2.43.37-3.64.37-3.61.75-7.22,1.16-10.82.09-.74.16-1.48.25-2.21q.74-6.39,1.56-12.78l.3-2.29q1.37-10.44,2.93-20.82c.11-.74.22-1.49.34-2.23q1.6-10.55,3.41-21l.24-1.41q1.92-11.07,4-22c0-.28.11-.55.16-.83Q197.74,359,200,348.5c.16-.77.33-1.53.49-2.29q1.77-8.22,3.62-16.33l.48-2.06q1.92-8.29,3.92-16.48c.11-.46.23-.92.34-1.37q2.1-8.5,4.28-16.87a2.68,2.68,0,0,0,.07-.27q2.21-8.4,4.48-16.61c.1-.35.19-.7.29-1,1.19-4.29,2.41-8.54,3.63-12.75l.81-2.8c1.23-4.19,2.46-8.35,3.72-12.45.12-.41.25-.82.38-1.23q1.76-5.76,3.55-11.39l.78-2.45q1.89-5.93,3.82-11.71c.3-.92.6-1.82.91-2.72q1.2-3.6,2.42-7.14c.35-1,.71-2.06,1.06-3.08.9-2.6,1.81-5.17,2.71-7.71.22-.61.43-1.23.65-1.83q1.68-4.68,3.36-9.23c.29-.79.59-1.57.88-2.36.85-2.27,1.7-4.53,2.55-6.76.41-1.06.81-2.12,1.22-3.17.54-1.4,1.08-2.79,1.63-4.18.44-1.13.89-2.27,1.34-3.39.54-1.37,1.09-2.73,1.63-4.08l1.35-3.31c.55-1.34,1.09-2.65,1.64-4l1.33-3.19c.55-1.31,1.11-2.6,1.66-3.89.46-1.06.91-2.13,1.37-3.18l1-2.26c.57-1.3,1.14-2.59,1.71-3.86q.52-1.18,1-2.34l1.66-3.65c.35-.75.69-1.5,1-2.24.59-1.27,1.18-2.51,1.77-3.75.3-.64.6-1.28.9-1.9s.55-1.13.82-1.7c.94-1.93,1.87-3.83,2.8-5.68.34-.67.67-1.34,1-2,1-2,2-4,3-5.86l.45-.87q1.5-2.84,3-5.53l.74-1.31c.74-1.33,1.48-2.64,2.22-3.91.43-.75.86-1.46,1.28-2.18s.95-1.61,1.42-2.38.86-1.4,1.28-2.1l1.39-2.23c.61-.95,1.21-1.88,1.81-2.79.19-.29.38-.6.58-.88.8-1.21,1.59-2.37,2.38-3.49l.56-.79c.6-.84,1.19-1.67,1.78-2.46l.79-1c.53-.7,1-1.38,1.57-2,.25-.31.49-.62.74-.92.59-.74,1.19-1.45,1.78-2.14.14-.17.29-.36.44-.53.73-.83,1.44-1.62,2.15-2.37.19-.2.38-.38.56-.58.52-.53,1-1.05,1.55-1.54l.81-.76c.45-.42.89-.81,1.34-1.19q.39-.34.78-.66c.47-.38.93-.74,1.39-1.08.22-.16.44-.33.66-.48.67-.47,1.33-.9,2-1.28s1.22-.66,1.85-.95l.41-.18a24.51,24.51,0,0,1,2.71-1l.06,0a22.92,22.92,0,0,1,2.64-.57c.18,0,.36-.07.55-.09a23.18,23.18,0,0,1,2.37-.22h.3c.72,0,1.46,0,2.19,0l.62,0c.93.07,1.88.19,2.83.35l.41.08a35.45,35.45,0,0,1,3.46.84l.81.26,1.26.42.91.35,1.22.48.65.29q.94.4,1.89.87l.82.41c.62.31,1.24.65,1.87,1l1,.53L239.69,6l-.47-.27-.5-.27c-.62-.35-1.25-.68-1.86-1L236,4c-.63-.31-1.26-.59-1.88-.87-.16-.07-.32-.15-.48-.21l-.18-.08c-.41-.17-.82-.32-1.23-.48s-.6-.24-.9-.34-.85-.29-1.27-.43c-.25-.08-.49-.17-.74-.24l-.06,0a32.7,32.7,0,0,0-3.46-.83,2.44,2.44,0,0,0-.26-.06l-.14,0c-1-.17-1.9-.28-2.84-.36l-.27,0H222c-.73,0-1.46,0-2.18,0h-.31a23.18,23.18,0,0,0-2.37.22,1.9,1.9,0,0,0-.25,0c-.1,0-.2,0-.3.06a23.41,23.41,0,0,0-2.64.58h0l0,0a21.88,21.88,0,0,0-2.7,1,1.84,1.84,0,0,0-.25.09l-.17.08c-.62.29-1.24.6-1.85,1s-1.31.8-2,1.27c-.22.15-.44.33-.66.49-.46.34-.92.69-1.39,1.07-.26.21-.52.44-.78.66-.44.38-.89.78-1.34,1.2-.27.24-.54.5-.81.76l-.49.45c-.35.35-.7.73-1.06,1.09-.18.19-.37.37-.55.57-.68.72-1.36,1.46-2.05,2.25l-.11.13-.43.51c-.6.69-1.19,1.41-1.79,2.15l-.73.91-.74.94c-.28.36-.56.74-.84,1.11s-.52.68-.78,1c-.6.8-1.19,1.62-1.79,2.47l-.56.78-.13.18c-.75,1.07-1.5,2.18-2.26,3.32l-.55.85c-.5.75-1,1.5-1.49,2.28l-.34.54-1.37,2.21c-.44.7-.87,1.39-1.31,2.12l-1.4,2.35c-.33.57-.66,1.11-1,1.7-.1.16-.19.34-.29.5-.73,1.27-1.47,2.58-2.22,3.91-.24.44-.49.87-.74,1.32q-1.49,2.68-3,5.51a1.62,1.62,0,0,0-.1.18l-.38.73c-1,1.89-2,3.84-3,5.82l-1,2c-.93,1.85-1.87,3.74-2.8,5.68-.19.38-.37.73-.55,1.11l-.26.56-.93,1.94-1.75,3.72-1,2.23q-.84,1.82-1.68,3.69c-.34.76-.69,1.52-1,2.29-.58,1.28-1.15,2.58-1.72,3.88-.33.76-.66,1.51-1,2.27l-.39.91c-.32.74-.64,1.51-1,2.26-.55,1.29-1.1,2.57-1.65,3.88l-1.35,3.23c-.54,1.31-1.09,2.62-1.63,3.94q-.67,1.65-1.35,3.33c-.54,1.34-1.08,2.68-1.62,4-.45,1.14-.91,2.29-1.36,3.44-.54,1.37-1.08,2.75-1.62,4.15-.22.57-.44,1.13-.66,1.71s-.37,1-.55,1.46q-1.29,3.35-2.56,6.77c-.29.79-.59,1.56-.88,2.36q-1.68,4.55-3.35,9.21c-.23.62-.45,1.25-.67,1.87-.9,2.54-1.8,5.11-2.7,7.69l-1.05,3.06c-.82,2.36-1.62,4.75-2.43,7.15l-.65,1.91c-.09.27-.17.55-.26.81q-1.92,5.79-3.82,11.7c-.26.83-.52,1.66-.79,2.49q-1.78,5.63-3.54,11.35c-.13.42-.26.83-.38,1.24q-1.87,6.16-3.72,12.46l-.81,2.8q-1.83,6.32-3.63,12.74l-.09.32c-.07.24-.13.49-.2.73q-2.28,8.23-4.49,16.64a2.25,2.25,0,0,1-.05.22c-1.46,5.58-2.89,11.23-4.3,16.91l-.33,1.33c-1.34,5.46-2.65,11-3.93,16.52-.15.67-.31,1.34-.46,2q-1.86,8.11-3.63,16.34c-.1.47-.21.94-.31,1.42l-.18.87Q92.09,297.58,90,308.2c0,.26-.11.53-.16.8q-2.12,11-4,22l-.24,1.42q-1.8,10.47-3.41,21c-.12.75-.23,1.49-.34,2.23q-1.56,10.4-2.93,20.82c0,.39-.11.77-.16,1.16s-.09.76-.14,1.14c-.54,4.25-1.07,8.51-1.56,12.77l-.24,2.2q-.61,5.42-1.17,10.83c-.12,1.22-.25,2.44-.37,3.65q-.57,5.85-1.08,11.69c0,.42-.07.84-.11,1.25q-.54,6.4-1,12.79c-.08,1.15-.15,2.3-.23,3.45-.23,3.41-.43,6.81-.62,10.21,0,1-.11,2-.16,3q-.33,6.34-.55,12.66c0,.87-.05,1.75-.08,2.62q-.17,5.19-.26,10.33c0,1.18,0,2.35-.06,3.52-.06,4.22-.1,8.43-.09,12.62.61,213,66.05,344.55,69.49,351.48l105.65,61.39c-3.45-6.92-68.89-138.49-69.49-351.47,0-4.19,0-8.41.09-12.63Q176.81,539.42,176.85,537.67Z"/><path class="cls-9" d="M334.27,247.28c39.94-23.06,72.43-4.54,72.56,41.33s-32.15,101.78-72.09,124.84S262.33,418,262.2,372.11,294.35,270.33,334.27,247.28Z"/><path class="cls-3" d="M57.41,1016.87c0-.09-.09-.21-.13-.32a5.36,5.36,0,0,1-.2-.57c0-.13-.08-.28-.12-.43s-.12-.47-.18-.73-.08-.34-.11-.52-.11-.6-.16-.92l-.09-.58c-.06-.37-.11-.77-.15-1.18,0-.19-.05-.36-.07-.56-.07-.62-.13-1.27-.19-2,0-.06,0-.12,0-.18,0-.64-.1-1.32-.14-2,0-.27,0-.56,0-.84,0-.52-.06-1-.08-1.6,0-.33,0-.66,0-1,0-.54,0-1.09-.05-1.65l0-1.13c0-.56,0-1.15,0-1.74,0-.4,0-.79,0-1.2,0-.62,0-1.26,0-1.9v-1.22c0-.72,0-1.46,0-2.21v-1.08c0-1.12,0-2.27,0-3.45,0-.17,0-.36,0-.53,0-1,0-2,.06-3.08,0-.46,0-.93,0-1.39,0-.8,0-1.6.07-2.43,0-.49,0-1,.05-1.5l.09-2.62.06-1.57c0-.91.08-1.84.12-2.77l.06-1.54c0-1.06.1-2.13.16-3.21L56.4,966c.07-1.48.15-3,.24-4.49,0-.39,0-.79.07-1.19.06-1.14.13-2.29.2-3.46,0-.58.07-1.17.11-1.76.06-1,.13-2,.19-3,0-.63.09-1.26.13-1.89l.21-3.09c.05-.62.09-1.23.13-1.85.09-1.17.17-2.35.26-3.54,0-.49.08-1,.11-1.47.13-1.67.26-3.35.4-5l.09-1.12c.11-1.34.22-2.67.34-4,0-.64.11-1.29.16-1.94.1-1.1.19-2.2.29-3.31.06-.68.13-1.37.19-2.06.1-1.12.21-2.25.31-3.39l.18-1.93.36-3.71c.06-.57.11-1.13.17-1.7l.54-5.32.09-.88c.16-1.51.32-3,.49-4.54.06-.61.13-1.22.2-1.84.13-1.2.26-2.4.4-3.61l.21-1.8c.22-1.94.44-3.89.68-5.83l.09-.77c.25-2.15.52-4.29.79-6.43l.21-1.63q.36-2.88.74-5.75c0-.27.07-.55.11-.83.28-2.13.58-4.25.87-6.37.08-.53.15-1,.22-1.58q.41-2.82.82-5.63l.12-.85q.47-3.14.95-6.24l.24-1.51q.42-2.73.87-5.43l.15-.91q.49-3,1-6c.08-.48.17-1,.25-1.43.34-1.93.68-3.85,1-5.74,0-.18.07-.36.1-.54q.57-3,1.14-6c.1-.46.19-.93.28-1.38.39-2,.78-3.91,1.19-5.81,0-.12,0-.23.07-.35.39-1.81.78-3.57,1.17-5.32.09-.38.17-.77.26-1.15q.75-3.27,1.51-6.37l.24-1q.78-3.07,1.57-6c.1-.4.21-.79.32-1.18.27-1,.54-1.9.81-2.83.12-.43.24-.85.37-1.27.34-1.14.68-2.26,1-3.35,0-.14.1-.3.14-.45.23-.7.46-1.38.68-2.06.12-.35.23-.71.35-1,.35-1,.69-2,1-3l.51-1.35c.69-1.87,1.41-3.75,2.15-5.66.29-.76.6-1.52.9-2.29q.94-2.37,1.93-4.79l.89-2.16q1.91-4.56,3.93-9.23l.72-1.61q2.13-4.86,4.38-9.76l0-.07c1.17-2.53,2.36-5.08,3.56-7.62.36-.77.73-1.53,1.1-2.29q1.31-2.76,2.64-5.51c.4-.81.79-1.62,1.18-2.42,1.06-2.17,2.12-4.32,3.19-6.47l.54-1.1c1.26-2.52,2.53-5,3.79-7.51.41-.79.81-1.58,1.21-2.37.79-1.53,1.57-3.06,2.36-4.57.45-.89.91-1.77,1.37-2.64l2.27-4.36,1.32-2.5,2.47-4.66,1.06-2c1.16-2.17,2.32-4.33,3.46-6.44l.37-.68q1.54-2.85,3.06-5.6l1.1-2q1.13-2,2.21-4l1.24-2.23,2-3.65,1.16-2.07c.69-1.24,1.37-2.44,2-3.63l1.07-1.9.49-.86,1.91-3.36.51-.89,2.16-3.78c.08-.15.16-.29.25-.43l1.83-3.19.43-.74q1.95-3.37,3.59-6.17c.12-.22.25-.43.37-.63.45-.78.89-1.52,1.3-2.22l.21-.37,1.29-2.18.31-.52.88-1.48.2-.34.86-1.45.1-.17.55-.92.14-.22.33-.57-55.55-25.42-.34.57c0,.07-.08.14-.13.22l-.56.93-.1.16-.86,1.45-.2.34-.88,1.48-.3.52c-.41.68-.83,1.4-1.29,2.19a3.28,3.28,0,0,0-.22.37c-.41.69-.85,1.43-1.3,2.21-.12.21-.24.42-.37.63L99,615.08l-.06.09c-.56,1-1.16,2-1.77,3.06l-.52.9-1.7,3c-.12.22-.24.42-.37.64-.68,1.2-1.4,2.44-2.13,3.72l-.51.91q-.91,1.59-1.86,3.27l-.56,1-.31.53-.67,1.19-2.13,3.79c-.37.66-.75,1.33-1.12,2-.68,1.2-1.36,2.43-2,3.67L82,645l-2.21,4-1.11,2c-1,1.84-2,3.7-3,5.6l-.37.68q-1.72,3.18-3.47,6.44l-1.06,2-2.47,4.66L67,672.91c-.77,1.47-1.54,2.94-2.31,4.43-.45.85-.89,1.71-1.33,2.57-.81,1.54-1.6,3.1-2.4,4.66l-.88,1.7-.29.59q-1.9,3.75-3.8,7.53l-.54,1.08c-1.07,2.17-2.14,4.33-3.21,6.51l-1.15,2.37c-.9,1.86-1.79,3.71-2.68,5.57-.35.75-.71,1.5-1.07,2.24-1.2,2.55-2.4,5.1-3.56,7.64v0l0,0q-2.25,4.92-4.38,9.77c-.24.53-.48,1.06-.71,1.59q-2,4.68-3.94,9.25c-.11.28-.24.56-.36.84l-.52,1.3q-1,2.43-1.94,4.82c-.3.76-.6,1.51-.89,2.26q-1.12,2.89-2.17,5.71l-.36.93c0,.13-.09.25-.13.38-.36,1-.7,1.94-1.05,2.95l-.3.91c-.24.73-.48,1.45-.72,2.21l0,.06c0,.13-.07.26-.11.38-.35,1.1-.69,2.22-1,3.36l-.36,1.24c-.28.94-.55,1.89-.82,2.87l-.21.75c0,.13-.07.27-.11.4q-.8,2.91-1.56,6c-.08.33-.17.66-.25,1-.51,2.06-1,4.19-1.51,6.36,0,.14-.07.28-.1.42s-.1.48-.16.71c-.39,1.75-.78,3.52-1.16,5.33,0,.12-.06.23-.08.35q-.6,2.87-1.19,5.81l-.27,1.36q-.59,3-1.15,6l-.09.53q-.52,2.85-1,5.77c0,.26-.1.52-.14.78s-.07.42-.11.62c-.34,2-.69,4-1,6,0,.27-.09.54-.14.82-.3,1.83-.59,3.68-.89,5.53-.07.48-.15,1-.22,1.44-.33,2.08-.64,4.17-1,6.27l-.12.83c-.28,1.88-.55,3.78-.82,5.68L10.41,841c-.3,2.13-.6,4.26-.88,6.41,0,.24-.06.48-.1.73Q9.06,851,8.68,854l-.21,1.64c-.27,2.14-.54,4.29-.79,6.44,0,.22-.06.44-.08.66q-.36,3-.69,5.93c0,.3-.07.59-.11.88l-.09.87-.42,3.76c-.06.57-.13,1.13-.19,1.69-.16,1.55-.33,3.09-.49,4.63l-.09.83L5,886.64c-.05.53-.1,1.06-.16,1.59L4.46,892c-.06.65-.12,1.3-.19,2-.1,1.14-.21,2.27-.31,3.41l-.18,2-.3,3.41c0,.63-.11,1.25-.16,1.87-.12,1.41-.24,2.82-.35,4.21,0,.3-.05.6-.07.9-.14,1.72-.28,3.42-.41,5.12,0,.44-.06.88-.1,1.33l-.27,3.65L2,921.63c-.08,1.07-.15,2.15-.22,3.21l-.12,1.76c-.07,1.06-.14,2.11-.2,3.16,0,.56-.07,1.13-.11,1.7-.07,1.21-.14,2.4-.21,3.59l-.06,1c-.08,1.54-.17,3.06-.24,4.55,0,.36,0,.72,0,1.08C.73,942.82.68,943.93.63,945c0,.52-.05,1-.07,1.54l-.12,2.79-.06,1.52c0,.91-.06,1.82-.09,2.71l0,.92c0,.17,0,.33,0,.5,0,.86,0,1.7-.07,2.54,0,.43,0,.86,0,1.27,0,1.07-.05,2.12-.07,3.15,0,.16,0,.33,0,.49,0,1.18,0,2.33,0,3.45v1c0,.77,0,1.53,0,2.27v1.18c0,.65,0,1.29,0,1.92,0,.41,0,.81,0,1.2,0,.59,0,1.18,0,1.74l0,1.13c0,.57,0,1.12.05,1.66,0,.33,0,.66,0,1,0,.57.05,1.11.08,1.65,0,.26,0,.54,0,.79,0,.71.09,1.39.14,2a1,1,0,0,1,0,.17c.06.7.12,1.35.19,2,0,.19,0,.36.07.54q.08.63.15,1.2L1,988c.05.32.11.63.16.92s.07.35.11.52.12.5.18.73.08.3.12.43.13.4.2.57.09.23.13.32a2.44,2.44,0,0,0,.25.43,1.22,1.22,0,0,0,.12.19,1,1,0,0,0,.39.34l55.56,25.42a1.12,1.12,0,0,1-.4-.34s-.08-.13-.12-.19A4.14,4.14,0,0,1,57.41,1016.87Z"/><path class="cls-2" d="M162.84,626.49l18,145.46c-.92.94-18.49,18.92-58.48,80.15-35.65,54.59-54,158.92-63.13,165.47a1.64,1.64,0,0,1-.74.32c-8.9,1.09,2.91-174.42,25.36-235.75C106.54,720.23,160,631.18,162.84,626.49Z"/></g></g></g></svg>