<svg  width="54px" height="54px" xmlns="http://www.w3.org/2000/svg" viewBox="0 0 666.07 817.64"><defs><style>.cls-1{opacity:0.25;}.cls-2{fill:#131718;}.cls-3{fill:#64bc46;}.cls-4{fill:#46b7bf;}.cls-5{fill:#ef4960;}.cls-6{fill:#fbb034;}</style></defs><title>thumbs-up</title><g id="Layer_2" data-name="Layer 2"><g id="thumbs-up"><g class="cls-1"><g id="Layer2_0_FILL" data-name="Layer2 0 FILL"><path class="cls-2" d="M317.06,564.22a68.91,68.91,0,0,0-17.47-10.54L190.52,486.75q-28-23-65.9-10.92l-58.2,21.84q-7,4-10.28,7.84l-20.55,7.7Q11.42,527,31.6,539L336.2,725.83c2,1.22,3.89,2.33,5.79,3.34L462.75,803.3q35.46,22,56.52,10.28L578,785.31a19.63,19.63,0,0,0,6.56-3.85l24.28-11.69q20.29-7.85-3.86-28.91Z"/></g></g><path class="cls-3" d="M638.11,531.71a10.18,10.18,0,0,1,.38-4.36l-4-.52,4,7.07a.86.86,0,0,0,0-.39c-.17-.68-.3-1.28-.38-1.8M522,656.72h.13v-.13l-.13.13m19.14-64.24c.35.6.73,1.24,1.16,1.93L540.34,590A20.5,20.5,0,0,0,541.11,592.48Z"/><path class="cls-4" d="M638.62,534l-.9.25,3.47,6a14.36,14.36,0,0,1-.64-1.8c-.43-.68-.81-1.32-1.16-1.92a16.82,16.82,0,0,1-.77-2.57M259.25,188.7v-19l-18,9.89h-1.42l1.42.77.38-.51,17.6,8.86M129.5,242.14l.25.26-.12,285.08v1l53.57-30.19-.64-.9c-2.16-1.58-4.38-3.16-6.69-4.75l-.77.51-.77-1.54q-11.58-7.85-24.41-15.16V233.54l-1.79-3.09-.26.13-1.67-.64-.52.26.26.25-.13,2.19-16.31,9.5m-110.74-98-.52-.25v.64l.52-.39M103.55,450A27.31,27.31,0,0,0,77.6,430.87q-8.1.38-12.34,6-4.5,5.91-2.18,13.88A25.88,25.88,0,0,0,73,464.53a25,25,0,0,0,15.93,5.26q8.35-.26,12.72-5.91Q105.87,458,103.55,450Z"/><path class="cls-5" d="M522.61,673a19.49,19.49,0,0,1,2.44,3.6,74.28,74.28,0,0,1,4.89,9.38c.34,1,.68,2,1,3a43.07,43.07,0,0,1,1.8,15.16l6.3,11.82L620,673.29a11,11,0,0,0,3.6-2.06,13.24,13.24,0,0,0,2.57-2.31,10,10,0,0,0,.9-1.16l.38-.9q.7-1.26,1.93-4.11a5.25,5.25,0,0,1,.26-.64q2.45-6.81.9-18.24-1.8-12.21-2.31-13.75a75,75,0,0,0-4.89-9.38,19.76,19.76,0,0,0-2.44-3.59,1.77,1.77,0,0,0-.51-.9A28,28,0,0,1,618.2,611L520,667.12a26.72,26.72,0,0,0,2.06,5,1.86,1.86,0,0,1,.51.9m19.66-78.62a16.15,16.15,0,0,0,.64,1.8,35.1,35.1,0,0,1,1.67,4.11q6.27,16.74-1.15,34.56-4.77,12.57-14,17.47A17.92,17.92,0,0,1,526,654a14.75,14.75,0,0,0-3.85,2.57v.13l99-56.79c.54-.35,1.09-.74,1.67-1.15.45-.2.93-.41,1.41-.65q11.82-4.23,17.48-19.14,8.34-20-.52-38.67l-3.47-6L540.34,590l1.93,4.37M175.1,493.17l.77-.51-1.54-1,.77,1.54m369.35-.64a34.76,34.76,0,0,0,3.22,5.14q1.92,2.06,3.59,4.11a68.38,68.38,0,0,1,5.53,6.55,58.75,58.75,0,0,1,3.34,4.88,47.4,47.4,0,0,1,4.49,8.74q6.81,17.47-1,35.84a27.15,27.15,0,0,0-.9,2.57A34,34,0,0,1,552.16,574l82.35-47.15,4,.52a9,9,0,0,1,3.6-4.63l.51-.38h0l1-.65,1-.38q10.53-4.24,16.32-16.83c.25-.86.55-1.71.89-2.57q7.85-18.37,1-35.84a46.77,46.77,0,0,0-4.49-8.74,67.48,67.48,0,0,0-8.87-11.43,53.15,53.15,0,0,0-3.72-4.11,33.44,33.44,0,0,1-3.09-5.4l-98.28,56.14M241.65,179.84l-.38.51-1.42-.77-91.72,50.87,1.79,3.09v-1.67q43,24.1,69,19.27,51.95-9.42,89.42-37.64l-49.08-24.8-17.6-8.86m185-119.09q8.44,4.64,15.16,19.65a142.09,142.09,0,0,1,6.29,17.73q9.64,33.27,8.35,55.88-.92,24.42-6.16,43-1.34,4.74-3,9.12-8,24.75-20.68,39.7a65.07,65.07,0,0,1-10.28,10,2.12,2.12,0,0,1-.26.26q-21.72,15.15-15.93,33.14a31,31,0,0,0,1.67,4c.49,1,1,2.07,1.54,3.08a67.12,67.12,0,0,0,11.44,13.49l130.78,93.91a72.72,72.72,0,0,1,8.61,9.25,56.31,56.31,0,0,1,4.11,5.91q10.68,17.55,4.88,38-3.86,15.41-14.9,20.94l1.41,2.44,92.88-53.19a12.68,12.68,0,0,1,4.63-4.5q11-5.52,14.9-20.94,6.81-24-9-43.93a77.85,77.85,0,0,0-14.39-14L511.18,251a60,60,0,0,1-8.74-9.89,30.26,30.26,0,0,1-3.46-5.91,21.24,21.24,0,0,1-1.55-4,21.64,21.64,0,0,1-.9-6.42q-1.15-13.47,16.58-25.56,20.92-15.31,32.5-50.88,8-21.45,9.12-52,.82-14.6-2.83-33.53-1.32-6.73-3.21-14-1.05-4.15-2.31-8.48-2.19-7.57-4.62-13.75-1.47-3.62-3.09-6.81A61.75,61.75,0,0,0,535,13Q519.62-8.72,494.61,5.89l-90.19,52,.39,1.16q8.52-3.28,20.94,1.15C426.06,60.42,426.36,60.59,426.65,60.75Z"/><path class="cls-4" d="M522.1,656.72H522l1.54,2.56-1.41-2.56M127.57,82.84l-15.29,8.48.52,1-94,51.77-.52.39v-.64L.64,153.63,129,242.4l.52-.26,16.31-9.5.13-2.19-.26-.25.26-.39.26.13,1.67.64.26-.13,91.72-50.87h1.42l18-9.89v-.26Z"/><path class="cls-6" d="M441.81,80.4q-6.72-15-15.16-19.65c-.29-.16-.59-.33-.9-.52q-12.42-4.42-20.94-1.15l-.39-1.16-2.05,1.16a24,24,0,0,0-6,6.29,47.84,47.84,0,0,0-5.27,10.53q-1.19,5.19-2.57,10.15-23.64,85.08-80.16,127.45-37.49,28.23-89.42,37.64-25.95,4.83-69-19.27v244.6q12.83,7.32,24.41,15.16l1.54,1c2.31,1.59,4.53,3.17,6.69,4.75l1,.65q41.26,30.13,65.78,68.47l.51.51q23.29,33.27,74.77,68.86,85.14,62,170.22,90.83l.65.13a63.61,63.61,0,0,0,11.05,1.28,35.26,35.26,0,0,0,12.71-1.67,23.6,23.6,0,0,0,6.56-3.46l13.23-7.07-6.3-11.82A43.07,43.07,0,0,0,531,689c-.34-.94-.68-1.93-1-3a74.28,74.28,0,0,0-4.89-9.38,19.49,19.49,0,0,0-2.44-3.6,1.86,1.86,0,0,0-.51-.9,26.72,26.72,0,0,1-2.06-5L618.2,611q-1.83-7,2.95-11.05l-99,56.79,1.41,2.56L522,656.72l.13-.13A14.75,14.75,0,0,1,526,654a17.92,17.92,0,0,0,3.47-1.67q9.24-4.9,14-17.47,7.41-17.82,1.15-34.56a35.1,35.1,0,0,0-1.67-4.11,16.15,16.15,0,0,1-.64-1.8c-.43-.69-.81-1.33-1.16-1.93a20.5,20.5,0,0,1-.77-2.44l97.38-55.76.9-.25-.13-.13-4-7.07L552.16,574a34,34,0,0,0,10.54-13.62,27.15,27.15,0,0,1,.9-2.57q7.83-18.36,1-35.84a47.4,47.4,0,0,0-4.49-8.74,58.75,58.75,0,0,0-3.34-4.88,68.38,68.38,0,0,0-5.53-6.55q-1.66-2.05-3.59-4.11a34.76,34.76,0,0,1-3.22-5.14l98.28-56.14q-2.15-5.31-.13-9.25l-92.88,53.19-1.41-2.44q11-5.53,14.9-20.94,5.81-20.47-4.88-38a56.31,56.31,0,0,0-4.11-5.91,72.72,72.72,0,0,0-8.61-9.25L414.83,309.85a67.12,67.12,0,0,1-11.44-13.49c-.54-1-1.05-2-1.54-3.08a31,31,0,0,1-1.67-4q-5.79-18,15.93-33.14a2.12,2.12,0,0,0,.26-.26,65.07,65.07,0,0,0,10.28-10q12.64-15,20.68-39.7,1.62-4.38,3-9.12,5.23-18.62,6.16-43,1.29-22.6-8.35-55.88a142.09,142.09,0,0,0-6.29-17.73M.64,153.63,0,154V441l129.63,86.46.12-285.08-.25-.26-.52.26L.64,153.63M93.78,436.26A26.09,26.09,0,0,1,103.55,450q2.31,8-1.93,13.87-4.37,5.65-12.72,5.91A25,25,0,0,1,73,464.53a25.88,25.88,0,0,1-9.89-13.75q-2.31-8,2.18-13.88,4.24-5.64,12.34-6A26.27,26.27,0,0,1,93.78,436.26Z"/></g></g></svg>