<svg width="246" height="246" viewBox="0 0 246 246" fill="none" xmlns="http://www.w3.org/2000/svg">
<path d="M190.566 102.855C179.644 102.704 170.757 111.665 170.757 122.508C170.757 133.652 179.418 142.386 190.415 142.386C201.186 142.386 210.225 133.953 210.225 122.884C210.225 110.836 200.809 102.93 190.566 102.855ZM190.491 129.435C186.649 129.435 183.636 126.423 183.636 122.583C183.636 118.818 186.649 115.881 190.415 115.881C194.257 115.881 197.194 118.743 197.194 122.508C197.269 126.423 194.332 129.435 190.491 129.435Z" fill="#85C7FF"/>
<path d="M108.241 102.781C96.6415 102.631 89.3355 112.118 88.8835 118.066C101.613 118.066 114.342 118.066 127.071 118.066C126.242 111.064 118.635 102.856 108.241 102.781Z" fill="#85C7FF"/>
<path d="M122.927 0C54.9123 0 -0.523512 55.7953 0.00373002 123.036C-0.448192 190.126 54.6863 245.996 122.927 245.996C191.016 245.996 245.925 190.352 246 123.111C246 55.6447 190.865 0 122.927 0ZM80.6718 147.583C80.2952 149.013 79.1654 149.842 77.7343 150.068C76.002 150.369 74.8722 149.39 73.7424 148.26C67.4154 141.935 61.0885 135.61 54.7616 129.285C54.385 128.909 53.9331 128.532 53.4812 128.081C53.0293 128.532 52.5773 128.909 52.2007 129.285C45.7985 135.686 39.321 142.161 32.9187 148.562C31.0357 150.444 28.6255 150.595 27.1191 148.863C25.688 147.282 25.8386 145.023 27.4957 143.366C33.8979 136.89 40.3754 130.49 46.7777 124.015C47.2296 123.563 47.6062 123.111 48.1334 122.584C47.6815 122.057 47.2296 121.605 46.7777 121.153C40.5261 114.904 34.1992 108.579 27.9476 102.254C27.345 101.651 26.8178 100.974 26.5165 100.221C25.9139 98.7901 26.0646 97.3594 27.1944 96.1546C28.3242 95.0252 29.9059 94.724 31.4123 95.4017C32.0902 95.7782 32.6928 96.2299 33.2953 96.8323C39.6222 103.157 45.9491 109.482 52.2761 115.807C52.6527 116.184 53.1046 116.56 53.8578 117.313C55.2135 115.807 56.494 114.301 57.9251 112.871C63.3481 107.449 68.7712 102.028 74.2696 96.6064C76.1526 94.724 78.3369 94.5734 79.9939 96.1546C81.5757 97.6606 81.425 100.07 79.542 101.953C73.1398 108.353 66.7376 114.753 60.3353 121.153C59.9587 121.53 59.5821 121.982 59.0549 122.509C59.5821 123.036 59.9587 123.488 60.4106 123.939C66.8129 130.415 73.2151 136.815 79.6927 143.291C80.6718 144.646 81.0484 146.001 80.6718 147.583ZM128.5 125.671C127.822 125.746 127.144 125.671 126.467 125.671C114.415 125.671 102.289 125.671 90.2375 125.671C89.6349 125.671 89.1077 125.671 88.2039 125.671C90.3128 134.255 95.058 139.902 103.494 142.086C110.8 143.968 118.859 141.032 123.529 134.857C125.111 132.749 126.542 132.071 128.274 132.599C131.061 133.427 131.89 136.439 129.931 139.074C127.069 142.914 123.454 146.001 118.935 147.884C104.322 153.983 88.0532 147.282 82.3289 132.674C75.8513 116.334 86.5468 97.8865 103.946 95.477C118.633 93.3687 131.588 102.404 134.902 116.861C136.032 121.455 133.17 125.295 128.5 125.671ZM153.959 104.889C151.096 106.32 150.494 109.407 150.494 112.344C150.268 123.488 150.268 134.556 150.193 145.7C150.193 148.11 148.912 149.691 146.652 149.842C144.468 149.917 142.886 148.336 142.886 145.776C142.886 130.49 142.886 115.13 142.886 99.8442C142.886 97.8112 143.866 96.5311 145.673 96.0041C147.255 95.5523 148.837 96.3052 149.816 97.9618C149.967 98.1877 150.117 98.4136 150.268 98.7148C153.356 96.4558 156.821 95.477 160.587 95.5523C162.997 95.6276 164.579 96.9829 164.579 99.1665C164.654 101.501 163.148 102.706 160.587 103.082C158.327 103.383 155.917 103.835 153.959 104.889ZM190.79 150.218C175.048 150.444 162.545 137.267 162.922 122.433C162.696 108.729 173.843 95.3264 190.112 95.1005C205.026 94.8746 217.906 106.169 218.056 122.885C218.131 137.869 205.704 149.992 190.79 150.218Z" fill="#85C7FF"/>
</svg>
