<svg id="Layer_1" data-name="Layer 1" xmlns="http://www.w3.org/2000/svg" viewBox="0 0 51.48 46.64"><defs><style>.cls-1{fill:#fff;}</style></defs><title>aqilla-logo</title><path class="cls-1" d="M51.55,47.06H.06V.42l.6,0H51.52v46C51.52,46.67,51.54,46.87,51.55,47.06ZM24.64,38.53a1.13,1.13,0,0,1,.09-.17,6.68,6.68,0,0,0,1.07-7,4.79,4.79,0,0,0-4.2-3.27,5,5,0,0,0-5,2,6.84,6.84,0,0,0-1.12,4.66,5.39,5.39,0,0,0,7.77,4.62.55.55,0,0,1,.64.07c.67.42,1.36.82,2.09,1.25l.56-1.16Zm12.93,1.21c.51,0,.93,0,1.33,0s.4-.1.49-.36c.31-.9.66-1.8,1-2.71a.48.48,0,0,1,.55-.4q2,0,4,0a.4.4,0,0,1,.45.32c.33.93.67,1.86,1,2.78,0,.12.15.33.22.33.55,0,1.09,0,1.69,0-.09-.22-.13-.38-.19-.52L44.16,29.4c-.47-1.18-.46-1.16-1.73-1.19a.6.6,0,0,0-.67.47c-1,2.72-2.06,5.44-3.09,8.15Zm-22.71,0c-.09-.22-.13-.36-.18-.49q-2-4.91-3.92-9.81c-.16-.4-.24-.94-.54-1.14s-.86-.05-1.3-.09-.45.11-.55.4q-2,5.34-4.06,10.68c-.05.13-.09.26-.15.46.49,0,.9,0,1.31,0A.43.43,0,0,0,6,39.4c.32-.94.67-1.86,1-2.8a.39.39,0,0,1,.45-.32q2,0,4,0a.5.5,0,0,1,.55.4c.31.9.64,1.81,1,2.7.05.14.2.33.31.34C13.76,39.75,14.26,39.73,14.85,39.73ZM38.43,28.22c-.42,0-.76,0-1.1,0s-.41.09-.48.4c-.57,2.83-1.18,5.66-1.77,8.49-.18.85-.34,1.7-.53,2.62a8.49,8.49,0,0,1,.94,0c.43.05.59-.12.67-.54.51-2.58,1.06-5.16,1.6-7.74C38,30.41,38.2,29.36,38.43,28.22ZM31,39.73h.88c.63,0,.63,0,.76-.63l1.85-9c.13-.62.25-1.25.39-1.93a10.55,10.55,0,0,1-1.06,0c-.34,0-.46.11-.53.44-.46,2.29-.94,4.57-1.42,6.85C31.62,36.87,31.33,38.25,31,39.73Zm-2.86-4.17v3.18c0,1,0,1,1,1,.38,0,.48-.11.48-.49,0-2.28,0-4.55,0-6.83,0-1.08,0-1.08-1.09-1.07-.32,0-.42.1-.41.42C28.18,33,28.17,34.29,28.17,35.56ZM29.66,29c0-.13,0-.26,0-.39,0-.34-.09-.45-.43-.44-1.06,0-1.06,0-1.06,1v.09c0,.59,0,.59.57.59C29.66,29.93,29.66,29.93,29.66,29Z" transform="translate(-0.06 -0.42)"/></svg>