<svg id="Layer_1" data-name="Layer 1" xmlns="http://www.w3.org/2000/svg" xmlns:xlink="http://www.w3.org/1999/xlink" viewBox="0 0 135.95 25.05"><defs><style>.cls-1,.cls-2{fill:#fff;}.cls-2{opacity:0.05;isolation:isolate;}.cls-3{fill:url(#linear-gradient);}.cls-4{fill:url(#linear-gradient-2);}.cls-5{fill:url(#linear-gradient-3);}.cls-6{fill:#d70028;}.cls-7{fill:#c8001e;}</style><linearGradient id="linear-gradient" x1="15.14" y1="13.68" x2="21.22" y2="10.19" gradientTransform="matrix(1, 0, 0, -1, 0, 26)" gradientUnits="userSpaceOnUse"><stop offset="0" stop-color="#dc1405" stop-opacity="0.1"/><stop offset="1" stop-color="#dc1405" stop-opacity="0.6"/></linearGradient><linearGradient id="linear-gradient-2" x1="14.69" y1="18.5" x2="10.43" y2="13.47" xlink:href="#linear-gradient"/><linearGradient id="linear-gradient-3" x1="8.63" y1="11.29" x2="15.56" y2="5.52" xlink:href="#linear-gradient"/></defs><title>natwest-logo</title><path class="cls-1" d="M76.42,8.83v3.09H72.68V20c0,1.45.67,1.74,1.92,1.74a4.54,4.54,0,0,0,1.54-.24l.29-.1v3.09l-.14,0a11.15,11.15,0,0,1-3.21.34c-.91,0-3.84-.29-3.84-4.2V12H67V8.88h2.21v-4l3.45-1.21V8.93h3.74ZM99.73,3.76,95.56,24.61H92L88.32,10.09,84.62,24.61H81.17L76.8,3.76h3.65l2.83,14.14,3.5-14.14h3.36c.34,1.3,3.5,14,3.55,14.14,0-.14,2.49-13.66,2.59-14.14Zm3.6,11.34a3.47,3.47,0,0,1,3.36-3.43c2.4,0,3.12,2.12,3.21,3.43Zm3.5-6.52c-2.64,0-7.1,1.74-7.1,8.25,0,7.77,6.14,8.16,7.34,8.16A9.92,9.92,0,0,0,112,23.94l.14,0V20.61l-.34.19a8.37,8.37,0,0,1-4.22,1.11c-3.65,0-4.17-2.61-4.22-3.72h10V18a9.42,9.42,0,0,0-1.78-7.29A5.76,5.76,0,0,0,106.83,8.59Zm19.38,11.63c0,2.36-2.06,4.78-5.95,4.78a12.38,12.38,0,0,1-4.94-1.06l-.14,0V20.51l.34.19A10.35,10.35,0,0,0,120.17,22c1.58,0,2.5-.58,2.5-1.54s-.58-1.21-1.92-1.83l-.53-.24c-.67-.29-1.25-.53-2.21-1a4.51,4.51,0,0,1-3.07-4.25c0-1.54,1.2-4.44,5.61-4.44a12,12,0,0,1,4.37.82l.14,0v3.33l-.33-.14a8.32,8.32,0,0,0-4-1c-.53,0-2.16.1-2.16,1.3,0,.92,1.06,1.35,1.92,1.74l.14,0c.62.29,1.1.48,1.54.68l.43.19C125.21,16.75,126.21,18,126.21,20.22ZM47.78,3.76h3.41V24.61H47.88L38.81,10.09V24.61H35.4V3.76h3.36l9,14.62V3.76ZM132.21,12v8.11c0,1.45.67,1.74,1.92,1.74a4.79,4.79,0,0,0,1.54-.24l.29-.1v3.09l-.19,0a11.16,11.16,0,0,1-3.21.34c-.91,0-3.84-.29-3.84-4.2V12H126.5V8.88h2.21v-4l3.45-1.21V8.93h3.74V12h-3.69ZM62.51,20a4.73,4.73,0,0,1-3.6,1.79,2.19,2.19,0,0,1-2.45-2.22c0-1.35,1.1-2.17,3-2.17h3.07ZM59.82,8.54a12.43,12.43,0,0,0-4.7.82l-.14,0v3.23l.34-.14a12.18,12.18,0,0,1,4-.77c3,0,3.17,1.16,3.17,2.7H59.2c-4.32,0-6.28,2.7-6.28,5.26A5.27,5.27,0,0,0,58.43,25a5.84,5.84,0,0,0,4-1.54v1.11h3.45V13.95C66,9,61.69,8.54,59.82,8.54Z"/><path class="cls-2" d="M12.14,24.61l2-3.52,2,3.52h8.06l4-7-4-7h-4l2-3.52-4-7H10.07L6,7l2.06,3.52H4l-4,7,4,7h8.11Z"/><path class="cls-3" d="M20.2,10.57l-2,3.47h-4l-2,3.52H20.2l4-7Z"/><path class="cls-4" d="M8.11,10.57h4L14.15,14h4l-4-7H6Z"/><path class="cls-5" d="M14.15,21.09l-2-3.52,2-3.52-2.06-3.47-4,7,4,7Z"/><path class="cls-6" d="M28.26,17.57l-4-7-4,7H12.14l4,7h8.06Z"/><path class="cls-6" d="M8.06,17.57l4-7H4l-4,7,4,7h8.11Z"/><path class="cls-6" d="M22.21,7l-4-7H10.07L6,7h8.11l4,7Z"/><path class="cls-7" d="M24.23,10.57l4,7-4,7-4-7Z"/><path class="cls-7" d="M12.14,24.61H4l-4-7H8.06Z"/><path class="cls-7" d="M14.15,7l4,7,4-7-4-7Z"/></svg>