<svg id="Layer_1" data-name="Layer 1" xmlns="http://www.w3.org/2000/svg" viewBox="0 0 56.33 56.33"><defs><style>.cls-1{fill:#fff;}</style></defs><title>xero-logo</title><path class="cls-1" d="M28.15.67A28.17,28.17,0,1,0,56.33,28.86,28.17,28.17,0,0,0,28.15.67Zm-9.68,33.8a.77.77,0,0,1-.67.57,1,1,0,0,1-.91-.41l-4.35-4.35L12.25,30l-.29.28L7.54,34.69a.87.87,0,0,1-1.33.07A.88.88,0,0,1,6.3,33.5c1.47-1.48,2.95-2.95,4.42-4.43l.31-.33c-.1-.12-.21-.22-.31-.33C9.28,27,7.83,25.53,6.4,24.08a1.43,1.43,0,0,1-.33-.47.82.82,0,0,1,.16-.93.84.84,0,0,1,1-.17,1.9,1.9,0,0,1,.43.33L12,27.19l.36.34c.31-.34.6-.69.93-1C14.51,25.27,15.75,24,17,22.79a.88.88,0,0,1,1.31-.1.9.9,0,0,1-.1,1.33l-4.4,4.4-.29.31.31.33c1.47,1.48,2.93,2.95,4.42,4.43A1.14,1.14,0,0,1,18.47,34.46Zm11-5a4.18,4.18,0,0,1-.47,0H20.2a4.66,4.66,0,0,0,3.5,3.76,4.45,4.45,0,0,0,4.59-1.66c.36-.48.69-.64,1.09-.52a.89.89,0,0,1,.38,1.48,6,6,0,0,1-2.52,2,6.29,6.29,0,1,1,3.66-7.1A1.57,1.57,0,0,1,29.43,29.45Zm5.83-4.76a1.74,1.74,0,0,0-.79,1.71c-.05,2.55-.05,5.09-.07,7.64a.85.85,0,0,1-.81.95.84.84,0,0,1-.86-.93V23.53a.84.84,0,0,1,1.59-.43,1.52,1.52,0,0,1,.1.17,3.76,3.76,0,0,1,2.36-.72.83.83,0,0,1,.91.83c0,.53-.33.81-.91.9A4.51,4.51,0,0,0,35.26,24.69Zm8.43,10.38a6.31,6.31,0,1,1,6.24-6.26A6.31,6.31,0,0,1,43.69,35.07Z" transform="translate(0 -0.67)"/></svg>