<svg id="Layer_1" data-name="Layer 1" xmlns="http://www.w3.org/2000/svg" viewBox="0 0 16 33.08"><defs><style>.cls-1{fill:#c9c6c6;}.cls-2{fill:#ebebeb;}</style></defs><title>employee</title><path class="cls-1" d="M16,16.43l-2-7.27a1.81,1.81,0,0,0-.4-.7,7.83,7.83,0,0,0-3.1-1.93A7.41,7.41,0,0,0,8,6.13a7.41,7.41,0,0,0-2.43.39,7.53,7.53,0,0,0-3.1,1.93,2.21,2.21,0,0,0-.4.7L0,16.43A1.33,1.33,0,0,0,1,18.1a1,1,0,0,0,.36,0,1.39,1.39,0,0,0,1.3-1l1.8-6.4v21A1.31,1.31,0,0,0,5.8,33.08a1.31,1.31,0,0,0,1.35-1.31V20.55h1.8V31.72a1.35,1.35,0,0,0,2.7,0V10.78l1.8,6.4a1.39,1.39,0,0,0,1.3,1,1,1,0,0,0,.36,0A1.39,1.39,0,0,0,16,16.43Z"/><path class="cls-2" d="M8,6.13a3.11,3.11,0,0,0,3.15-3.07,3.15,3.15,0,0,0-6.29,0A3.11,3.11,0,0,0,8,6.13Z"/></svg>