<svg id="Layer_1" data-name="Layer 1" xmlns="http://www.w3.org/2000/svg" viewBox="0 0 15 22"><defs><style>.cls-1{fill:#ebebeb;}.cls-2{fill:#c9c6c6;}</style></defs><title>pound</title><path class="cls-1" d="M9,0a5.58,5.58,0,0,1,2.33.47,5.88,5.88,0,0,1,1.94,1.39,6.33,6.33,0,0,1,1.27,2A6.66,6.66,0,0,1,15,6.29a1.58,1.58,0,0,1-3.16,0A3.5,3.5,0,0,0,11.61,5,3.18,3.18,0,0,0,11,4a2.73,2.73,0,0,0-.9-.65A2.21,2.21,0,0,0,9,3.16c-2.31,0-2.66,1.63-2.66,3.2V16.92A5.35,5.35,0,0,1,6,18.82v0h4.88a.86.86,0,0,0,.63-.3,1.32,1.32,0,0,0,.33-.89v-.31a1.58,1.58,0,0,1,3.16,0v.31a4.48,4.48,0,0,1-1.16,3,4,4,0,0,1-3,1.32H1.58a1.58,1.58,0,1,1,0-3.16h0a1.4,1.4,0,0,0,.58-.13,1.62,1.62,0,0,0,.53-.39,2,2,0,0,0,.38-.63,2.2,2.2,0,0,0,.14-.78V6.36C3,4.24,3.93,0,9,0Z" transform="translate(0 0)"/><path class="cls-2" d="M9.11,10.23a1.58,1.58,0,0,1,0,3.16H1.58a1.58,1.58,0,1,1,0-3.16Z" transform="translate(0 0)"/></svg>