<svg id="Layer_1" data-name="Layer 1" xmlns="http://www.w3.org/2000/svg" viewBox="0 0 288 309.9"><defs><style>.cls-1{fill:#4b0c61;}.cls-2{fill:#516cbe;}.cls-3{fill:#00adb9;}.cls-4{fill:#e84261;}.cls-5{fill:#ffb624;}</style></defs><title>secure</title><polygon class="cls-1" points="144 0 0 81 144 162 288 81 144 0"/><polygon class="cls-2" points="153 258.9 153 309.9 288 234 288 183 153 258.9"/><polygon class="cls-3" points="135 258.9 0 183 0 234 135 309.9 135 258.9"/><polygon class="cls-4" points="153 182.4 153 233.4 288 157.5 288 106.5 153 182.4"/><polygon class="cls-5" points="135 182.4 0 106.5 0 157.5 135 233.4 135 182.4"/><polygon class="cls-1" points="144 108 96 135 144 162 192 135 144 108"/></svg>