<svg id="Layer_1" data-name="Layer 1" xmlns="http://www.w3.org/2000/svg" viewBox="0 0 245.24 71"><defs><style>.cls-1{fill:#fff;}</style></defs><title>aptimise-logo-white</title><path class="cls-1" d="M33,0,0,18.56,33,37.11,66,18.56Z"/><path class="cls-1" d="M35.06,59.33V71L66,53.62V41.91Z"/><path class="cls-1" d="M30.93,59.33,0,41.91V53.62L30.93,71Z"/><path class="cls-1" d="M35.06,41.79V53.47L66,36.09V24.41Z"/><path class="cls-1" d="M30.93,41.79,0,24.41V36.09L30.93,53.47Z"/><path class="cls-1" d="M82.24,43.17H77.59L90.18,11.22h5l12.59,31.95H102.8L99.44,34H85.71Zm5-13.18H97.86L92.59,15.72Z"/><path class="cls-1" d="M130.29,14a10.26,10.26,0,0,1,2.56,7.25,10.71,10.71,0,0,1-2.67,7.58c-1.79,1.9-4.39,2.89-7.76,2.89H115V43.2h-4.5v-32h11.89C126,11.22,128.6,12.13,130.29,14Zm-8.24,13.65A6.15,6.15,0,0,0,126.78,26a6.61,6.61,0,0,0,1.57-4.76,6.08,6.08,0,0,0-1.5-4.39c-1-1-2.64-1.54-4.9-1.54H115V27.65Z"/><path class="cls-1" d="M147.16,25.16H141.3V36.91c0,2,.81,3,2.38,3a5.14,5.14,0,0,0,3-1.1l1.76,3a8,8,0,0,1-2.31,1.32,8.18,8.18,0,0,1-2.67.44,6.07,6.07,0,0,1-4.54-1.72,6.38,6.38,0,0,1-1.65-4.65V25.09h-2.53V21.35h2.53v-6h4.06v5.93h5.86Z"/><path class="cls-1" d="M154.88,11.18a2.47,2.47,0,0,1,.73,2,2.6,2.6,0,0,1-.73,2,2.8,2.8,0,0,1-1.9.66,2.93,2.93,0,0,1-1.94-.62,2.55,2.55,0,0,1-.73-2,2.6,2.6,0,0,1,.73-2,2.8,2.8,0,0,1,1.9-.66A2.59,2.59,0,0,1,154.88,11.18ZM151,21.35H155V43.17H151Z"/><path class="cls-1" d="M191.08,23.4c1.5,1.72,2.23,4.17,2.23,7.39V43.17h-4.06V31.46a8.25,8.25,0,0,0-1.32-5,4.51,4.51,0,0,0-3.81-1.79,5.63,5.63,0,0,0-3.18,1,8,8,0,0,0-2.45,2.71,15.45,15.45,0,0,1,.18,2.42V43.13h-4.06V31.42a8.06,8.06,0,0,0-1.35-5.05,4.62,4.62,0,0,0-3.88-1.76,5.25,5.25,0,0,0-3.18,1,6.6,6.6,0,0,0-2.2,2.6v14.9h-4.06V21.35H164v2.31a7.73,7.73,0,0,1,6.11-2.78c3.29,0,5.67,1.17,7.06,3.55a8.41,8.41,0,0,1,3.15-2.6,9.64,9.64,0,0,1,4.25-1C187.46,20.84,189.61,21.68,191.08,23.4Z"/><path class="cls-1" d="M201.84,11.18a2.48,2.48,0,0,1,.73,2,2.6,2.6,0,0,1-.73,2,2.8,2.8,0,0,1-1.9.66,2.94,2.94,0,0,1-1.94-.62,2.55,2.55,0,0,1-.73-2,2.6,2.6,0,0,1,.73-2,2.8,2.8,0,0,1,1.9-.66A2.59,2.59,0,0,1,201.84,11.18Zm-3.92,10.17H202V43.17h-4.06Z"/><path class="cls-1" d="M222.15,24.1,219.73,27a9.05,9.05,0,0,0-2.49-1.87,7.39,7.39,0,0,0-3.33-.66,5.57,5.57,0,0,0-3,.66,2.17,2.17,0,0,0-1,2,2,2,0,0,0,.55,1.5,3.59,3.59,0,0,0,1.46.84c.59.18,1.5.4,2.67.66a27.63,27.63,0,0,1,4.06,1.13,6.32,6.32,0,0,1,2.6,1.87,5.48,5.48,0,0,1,1.06,3.55A6.11,6.11,0,0,1,220,41.85a9.46,9.46,0,0,1-6.08,1.83,11.18,11.18,0,0,1-9-4.25l2.78-2.71a9.4,9.4,0,0,0,2.89,2.49,7.5,7.5,0,0,0,3.48.81c2.78,0,4.17-1,4.17-3a2.2,2.2,0,0,0-.55-1.61,3,3,0,0,0-1.39-.84,23,23,0,0,0-2.45-.62c-.26,0-.81-.15-1.68-.37a11.5,11.5,0,0,1-4.58-2.09,5.08,5.08,0,0,1-1.79-4.17,5.66,5.66,0,0,1,2.23-4.72,9.41,9.41,0,0,1,6-1.76A10.53,10.53,0,0,1,222.15,24.1Z"/><path class="cls-1" d="M245.21,33.39H228.52a7.43,7.43,0,0,0,2.23,4.9,6.89,6.89,0,0,0,4.83,1.76,7.72,7.72,0,0,0,3.59-.81,7.42,7.42,0,0,0,2.67-2.34l3.15,2a9.62,9.62,0,0,1-3.88,3.59,12.15,12.15,0,0,1-5.6,1.21c-3.51,0-6.26-1-8.2-3.11a11.77,11.77,0,0,1-2.93-8.34,13.21,13.21,0,0,1,1.24-5.93,9.2,9.2,0,0,1,3.66-4,10.75,10.75,0,0,1,5.64-1.43,10.4,10.4,0,0,1,5.56,1.43,9.54,9.54,0,0,1,3.55,4,13.34,13.34,0,0,1,1.21,5.82A12.47,12.47,0,0,1,245.21,33.39ZM230.75,26a7.05,7.05,0,0,0-2.09,3.88h12.26a6.62,6.62,0,0,0-2-4,5.7,5.7,0,0,0-4-1.43A6,6,0,0,0,230.75,26Z"/><path class="cls-1" d="M84.76,50.74l-1.13.91a4.62,4.62,0,0,0-1.1-.88,3.08,3.08,0,0,0-1.35-.29,2.51,2.51,0,0,0-1.57.44,1.37,1.37,0,0,0-.55,1.13,1.19,1.19,0,0,0,.33.88,2,2,0,0,0,.81.51c.33.11.77.26,1.32.4a13.52,13.52,0,0,1,1.79.55,3,3,0,0,1,1.17.88A2.56,2.56,0,0,1,84.94,57a3.21,3.21,0,0,1-.48,1.79,3,3,0,0,1-1.35,1.13,4.89,4.89,0,0,1-2,.4A4.43,4.43,0,0,1,77.08,58l1.13-.73a3.8,3.8,0,0,0,1.21,1.21,3,3,0,0,0,1.68.44,2.7,2.7,0,0,0,1.68-.48,1.57,1.57,0,0,0,.66-1.32,1.17,1.17,0,0,0-.29-.84,2.18,2.18,0,0,0-.73-.51,12.21,12.21,0,0,0-1.32-.4l-.59-.15A14.33,14.33,0,0,1,79,54.7a2.73,2.73,0,0,1-1-.92A3.11,3.11,0,0,1,78.5,50a3.81,3.81,0,0,1,2.6-.81A4.2,4.2,0,0,1,84.76,50.74Z"/><path class="cls-1" d="M88.13,49.43a.91.91,0,0,1,.26.66.78.78,0,0,1-.26.66.86.86,0,0,1-.62.22,1,1,0,0,1-.66-.22.91.91,0,0,1-.26-.66.78.78,0,0,1,.26-.66.86.86,0,0,1,.62-.22A1,1,0,0,1,88.13,49.43Zm-1.32,3.37h1.35V60H86.81Z"/><path class="cls-1" d="M100.46,53.45a3.7,3.7,0,0,1,.73,2.45V60H99.84V56.12a2.6,2.6,0,0,0-.44-1.65,1.42,1.42,0,0,0-1.24-.59,1.91,1.91,0,0,0-1.06.33,2.66,2.66,0,0,0-.81.88,5,5,0,0,1,.07.81V60H95V56.12a2.79,2.79,0,0,0-.44-1.68,1.49,1.49,0,0,0-1.28-.59,1.82,1.82,0,0,0-1.06.33,2.31,2.31,0,0,0-.73.84V60H90.14V52.76h1.35v.77a2.81,2.81,0,0,1,4.36.26,2.95,2.95,0,0,1,2.42-1.21A2.9,2.9,0,0,1,100.46,53.45Z"/><path class="cls-1" d="M108.37,53.09a3.31,3.31,0,0,1,1.25,1.32,4.67,4.67,0,0,1,0,4,2.9,2.9,0,0,1-1.25,1.32,3.54,3.54,0,0,1-1.87.48,2.62,2.62,0,0,1-2.09-.84v4.25h-1.35V52.76h1.35v.66a2.62,2.62,0,0,1,2.09-.84A3.72,3.72,0,0,1,108.37,53.09Zm-3.11,1.06a2.12,2.12,0,0,0-.81.81v2.89a2.31,2.31,0,0,0,.81.77,2.38,2.38,0,0,0,1.13.29,2,2,0,0,0,1.65-.7,3.15,3.15,0,0,0,0-3.66,2.15,2.15,0,0,0-1.65-.7A2.73,2.73,0,0,0,105.26,54.15Z"/><path class="cls-1" d="M111.66,49.13H113V60h-1.35Z"/><path class="cls-1" d="M121.43,56.78h-5.53a2.46,2.46,0,0,0,.73,1.61,2.24,2.24,0,0,0,1.61.59,2.4,2.4,0,0,0,1.17-.26,2.23,2.23,0,0,0,.88-.77l1,.66A3.66,3.66,0,0,1,120,59.82a4.08,4.08,0,0,1-1.83.4,3.51,3.51,0,0,1-2.71-1,3.84,3.84,0,0,1-1-2.78,4.89,4.89,0,0,1,.4-2,3.25,3.25,0,0,1,1.21-1.32,3.37,3.37,0,0,1,1.87-.48,3.25,3.25,0,0,1,1.83.48A2.93,2.93,0,0,1,121,54.44a4.57,4.57,0,0,1,.4,1.94A1.46,1.46,0,0,1,121.43,56.78Zm-4.76-2.49a2.58,2.58,0,0,0-.7,1.28H120a2.51,2.51,0,0,0-.66-1.32,1.83,1.83,0,0,0-1.32-.48A2.28,2.28,0,0,0,116.67,54.29Z"/><path class="cls-1" d="M127.76,60h-1.54l4.17-10.58H132L136.22,60h-1.65l-1.13-3H128.9Zm1.65-4.36h3.51l-1.76-4.72Z"/><path class="cls-1" d="M142,53a3.18,3.18,0,0,1,1.24,1.17l-1,.84a3.08,3.08,0,0,0-.91-.91,2,2,0,0,0-1.06-.26,2.23,2.23,0,0,0-1.72.66,3.15,3.15,0,0,0,0,3.66,2.07,2.07,0,0,0,1.61.7,2.52,2.52,0,0,0,2.16-1.21l1,.66a3.33,3.33,0,0,1-1.24,1.32,4.19,4.19,0,0,1-3.88,0A3.31,3.31,0,0,1,137,58.32a4.67,4.67,0,0,1,0-4A3,3,0,0,1,138.27,53a3.77,3.77,0,0,1,2-.48A4.44,4.44,0,0,1,142,53Z"/><path class="cls-1" d="M149.61,53a3.18,3.18,0,0,1,1.24,1.17l-1,.84a3.08,3.08,0,0,0-.91-.91,2,2,0,0,0-1.06-.26,2.23,2.23,0,0,0-1.72.66,3.15,3.15,0,0,0,0,3.66,2.07,2.07,0,0,0,1.61.7,2.52,2.52,0,0,0,2.16-1.21l1,.66a3.32,3.32,0,0,1-1.24,1.32,4.19,4.19,0,0,1-3.88,0,3.31,3.31,0,0,1-1.24-1.32,4.67,4.67,0,0,1,0-4A3,3,0,0,1,145.88,53a3.77,3.77,0,0,1,2-.48A4.44,4.44,0,0,1,149.61,53Z"/><path class="cls-1" d="M157.3,53.08a3.31,3.31,0,0,1,1.24,1.32,4.67,4.67,0,0,1,0,4,2.9,2.9,0,0,1-1.24,1.32,3.72,3.72,0,0,1-1.94.48,3.64,3.64,0,0,1-1.94-.48,3.31,3.31,0,0,1-1.24-1.32,4.67,4.67,0,0,1,0-4,2.9,2.9,0,0,1,1.24-1.32,3.72,3.72,0,0,1,1.94-.48A3.55,3.55,0,0,1,157.3,53.08Zm-3.55,1.46a3.15,3.15,0,0,0,0,3.66,2.12,2.12,0,0,0,1.61.7,2,2,0,0,0,1.61-.7,2.62,2.62,0,0,0,.59-1.83,2.81,2.81,0,0,0-.59-1.83,2.12,2.12,0,0,0-1.61-.7A2.2,2.2,0,0,0,153.75,54.55Z"/><path class="cls-1" d="M165.61,59.27a2.48,2.48,0,0,1-1,.66,3.24,3.24,0,0,1-1.21.26,2.87,2.87,0,0,1-2.27-.88,3.76,3.76,0,0,1-.77-2.56v-4h1.35v3.88a2.54,2.54,0,0,0,.48,1.72,1.79,1.79,0,0,0,1.39.55,2,2,0,0,0,1.17-.37,2.26,2.26,0,0,0,.81-1V52.83H167V60h-1.35Z"/><path class="cls-1" d="M174.87,53.49a3.77,3.77,0,0,1,.8,2.56v4h-1.35V56.12a2.54,2.54,0,0,0-.51-1.72,1.91,1.91,0,0,0-1.46-.55,2,2,0,0,0-1.21.37,2.35,2.35,0,0,0-.81,1v4.72H169V52.72h1.35v.81a2.76,2.76,0,0,1,2.23-1A3.11,3.11,0,0,1,174.87,53.49Z"/><path class="cls-1" d="M180.87,54h-1.94v3.88c0,.66.26,1,.8,1a1.58,1.58,0,0,0,1-.37l.59,1a2.63,2.63,0,0,1-.77.44,2.46,2.46,0,0,1-.88.15,2,2,0,0,1-1.5-.55,2.08,2.08,0,0,1-.55-1.54V54h-.84V52.76h.84V50.82H179v2h1.94V54Z"/><path class="cls-1" d="M187.53,53.67l-.8,1a4,4,0,0,0-.81-.62,2.44,2.44,0,0,0-1.1-.22,1.8,1.8,0,0,0-1,.22.74.74,0,0,0-.33.66.79.79,0,0,0,.18.51,1.51,1.51,0,0,0,.48.29,5,5,0,0,0,.88.22,13.62,13.62,0,0,1,1.35.37,2.42,2.42,0,0,1,.88.62,1.87,1.87,0,0,1,.37,1.17,2.08,2.08,0,0,1-.77,1.72,3.15,3.15,0,0,1-2,.62,3.71,3.71,0,0,1-3-1.39l.92-.88a3.35,3.35,0,0,0,1,.84,2.26,2.26,0,0,0,1.14.26c.91,0,1.39-.33,1.39-1a.9.9,0,0,0-.18-.55.93.93,0,0,0-.44-.29,4.71,4.71,0,0,0-.8-.22,3.31,3.31,0,0,1-.55-.11,3.36,3.36,0,0,1-1.5-.7,1.65,1.65,0,0,1-.59-1.39,2,2,0,0,1,.73-1.57,3,3,0,0,1,2-.59A3.45,3.45,0,0,1,187.53,53.67Z"/><path class="cls-1" d="M200.59,50.34a3.93,3.93,0,0,1,0,4.9,3.4,3.4,0,0,1-2.56,1h-2.45V60H194V49.42H198A3.44,3.44,0,0,1,200.59,50.34Zm-2.74,4.54a2.11,2.11,0,0,0,1.57-.55,2.26,2.26,0,0,0,.51-1.57,2.08,2.08,0,0,0-.48-1.46,2.24,2.24,0,0,0-1.61-.51h-2.31v4.1Z"/><path class="cls-1" d="M207.69,53.45v-.66H209V60h-1.35v-.66a2.62,2.62,0,0,1-2.09.84,3.54,3.54,0,0,1-1.87-.48,3.31,3.31,0,0,1-1.24-1.32,4.67,4.67,0,0,1,0-4,2.9,2.9,0,0,1,1.24-1.32,3.54,3.54,0,0,1,1.87-.48A2.49,2.49,0,0,1,207.69,53.45Zm-3.59,1.1a3.15,3.15,0,0,0,0,3.66,2.15,2.15,0,0,0,1.65.7,2.38,2.38,0,0,0,1.13-.29,2,2,0,0,0,.8-.77V55a2.81,2.81,0,0,0-.8-.81,2.32,2.32,0,0,0-2.78.4Z"/><path class="cls-1" d="M211.5,63.59l1.57-3.51-3.15-7.28h1.54l2.31,5.64,2.16-5.64h1.5L213,63.59Z"/><path class="cls-1" d="M223.47,53.45v-.66h1.35V60h-1.35v-.66a2.62,2.62,0,0,1-2.09.84,3.55,3.55,0,0,1-1.87-.48,3.31,3.31,0,0,1-1.24-1.32,4.67,4.67,0,0,1,0-4,2.9,2.9,0,0,1,1.24-1.32,3.55,3.55,0,0,1,1.87-.48A2.49,2.49,0,0,1,223.47,53.45Zm-3.62,1.1a3.15,3.15,0,0,0,0,3.66,2.15,2.15,0,0,0,1.65.7,2.38,2.38,0,0,0,1.13-.29,2,2,0,0,0,.8-.77V55a2.8,2.8,0,0,0-.8-.81,2.32,2.32,0,0,0-2.78.4Z"/><path class="cls-1" d="M230.24,52.61a3.55,3.55,0,0,1,1.87.48,3.3,3.3,0,0,1,1.24,1.32,4.67,4.67,0,0,1,0,4,2.89,2.89,0,0,1-1.24,1.32,3.55,3.55,0,0,1-1.87.48,2.62,2.62,0,0,1-2.09-.84V60H226.8V49.1h1.35v4.32A2.78,2.78,0,0,1,230.24,52.61ZM229,54.15a2.13,2.13,0,0,0-.8.81v2.89a2.31,2.31,0,0,0,.8.77,2.38,2.38,0,0,0,1.14.29,2,2,0,0,0,1.65-.7,3.15,3.15,0,0,0,0-3.66,2.15,2.15,0,0,0-1.65-.7A2.74,2.74,0,0,0,229,54.15Z"/><path class="cls-1" d="M235.4,49.13h1.35V60H235.4Z"/><path class="cls-1" d="M245.17,56.78h-5.53a2.46,2.46,0,0,0,.73,1.61A2.24,2.24,0,0,0,242,59a2.41,2.41,0,0,0,1.17-.26A2.24,2.24,0,0,0,244,58l1,.66a3.68,3.68,0,0,1-1.28,1.21,4.09,4.09,0,0,1-1.83.4,3.5,3.5,0,0,1-2.71-1,3.84,3.84,0,0,1-1-2.78,4.87,4.87,0,0,1,.4-2,3.24,3.24,0,0,1,1.21-1.32,3.38,3.38,0,0,1,1.87-.48,3.25,3.25,0,0,1,1.83.48,2.93,2.93,0,0,1,1.17,1.32,4.59,4.59,0,0,1,.4,1.94Zm-4.79-2.49a2.32,2.32,0,0,0-.7,1.28h4.06a2.5,2.5,0,0,0-.66-1.32,1.83,1.83,0,0,0-1.32-.48A2.37,2.37,0,0,0,240.38,54.29Z"/></svg>