<svg id="Layer_1" data-name="Layer 1" xmlns="http://www.w3.org/2000/svg" viewBox="0 0 138.16 40"><defs><style>.cls-1{fill:#42145f;}.cls-2{fill:#516cbe;}.cls-3{fill:#00adb9;}.cls-4{fill:#e84261;}.cls-5{fill:#ffb624;}.cls-6{fill:#808082;}</style></defs><title>aptimise-logo</title><path class="cls-1" d="M18.58,0,0,10.45,18.58,20.91l18.6-10.45Z"/><path class="cls-2" d="M19.75,33.42V40l17.42-9.79v-6.6Z"/><path class="cls-3" d="M17.42,33.42,0,23.61v6.6L17.42,40Z"/><path class="cls-4" d="M19.75,23.55v6.58l17.42-9.79V13.75Z"/><path class="cls-5" d="M17.42,23.55,0,13.75v6.58l17.42,9.79Z"/><path class="cls-6" d="M46.33,24.32H43.71l7.09-18h2.8l7.09,18H57.92L56,19.16H48.29Zm2.8-7.42h6l-3-8Z"/><path class="cls-6" d="M73.4,7.89A5.78,5.78,0,0,1,74.85,12a6,6,0,0,1-1.51,4.27A5.74,5.74,0,0,1,69,17.87H64.8v6.47H62.27v-18H69A5.69,5.69,0,0,1,73.4,7.89Zm-4.64,7.69a3.47,3.47,0,0,0,2.66-.95,3.72,3.72,0,0,0,.89-2.68,3.43,3.43,0,0,0-.85-2.47,3.73,3.73,0,0,0-2.76-.87H64.8v7Z"/><path class="cls-6" d="M82.91,14.18h-3.3v6.62c0,1.11.45,1.67,1.34,1.67a2.89,2.89,0,0,0,1.67-.62l1,1.69a4.52,4.52,0,0,1-1.3.74,4.61,4.61,0,0,1-1.51.25,3.42,3.42,0,0,1-2.56-1,3.6,3.6,0,0,1-.93-2.62v-6.8H75.9V12h1.42V8.67h2.29V12h3.3Z"/><path class="cls-6" d="M87.26,6.3a1.39,1.39,0,0,1,.41,1.13,1.46,1.46,0,0,1-.41,1.13,1.58,1.58,0,0,1-1.07.37,1.65,1.65,0,0,1-1.09-.35,1.43,1.43,0,0,1-.41-1.13,1.46,1.46,0,0,1,.41-1.13,1.58,1.58,0,0,1,1.07-.37A1.46,1.46,0,0,1,87.26,6.3ZM85.05,12h2.29V24.32H85.05Z"/><path class="cls-6" d="M107.65,13.19a6.13,6.13,0,0,1,1.26,4.16v7h-2.29v-6.6a4.65,4.65,0,0,0-.74-2.82,2.54,2.54,0,0,0-2.14-1,3.18,3.18,0,0,0-1.79.56A4.5,4.5,0,0,0,100.56,16a8.7,8.7,0,0,1,.1,1.36v7H98.37V17.7a4.54,4.54,0,0,0-.76-2.85,2.6,2.6,0,0,0-2.19-1,3,3,0,0,0-1.79.58,3.71,3.71,0,0,0-1.24,1.46V24.3H90.1V12h2.29v1.3a4.35,4.35,0,0,1,3.44-1.57,4.24,4.24,0,0,1,4,2,4.74,4.74,0,0,1,1.77-1.46,5.42,5.42,0,0,1,2.39-.54A4.46,4.46,0,0,1,107.65,13.19Z"/><path class="cls-6" d="M113.71,6.3a1.39,1.39,0,0,1,.41,1.13,1.46,1.46,0,0,1-.41,1.13,1.58,1.58,0,0,1-1.07.37,1.66,1.66,0,0,1-1.09-.35,1.43,1.43,0,0,1-.41-1.13,1.46,1.46,0,0,1,.41-1.13,1.58,1.58,0,0,1,1.07-.37A1.46,1.46,0,0,1,113.71,6.3ZM111.5,12h2.29V24.32H111.5Z"/><path class="cls-6" d="M125.15,13.58l-1.36,1.65a5.1,5.1,0,0,0-1.4-1.05,4.17,4.17,0,0,0-1.88-.37,3.14,3.14,0,0,0-1.67.37,1.22,1.22,0,0,0-.58,1.11,1.15,1.15,0,0,0,.31.85,2,2,0,0,0,.82.47c.33.1.85.23,1.5.37a15.52,15.52,0,0,1,2.29.64,3.56,3.56,0,0,1,1.46,1.05,3.08,3.08,0,0,1,.6,2,3.44,3.44,0,0,1-1.32,2.91,5.33,5.33,0,0,1-3.42,1,6.3,6.3,0,0,1-5.05-2.39L117,20.69a5.29,5.29,0,0,0,1.63,1.4,4.22,4.22,0,0,0,2,.45c1.57,0,2.35-.56,2.35-1.69a1.24,1.24,0,0,0-.31-.91,1.68,1.68,0,0,0-.78-.47,13,13,0,0,0-1.38-.35c-.14,0-.45-.08-.95-.21A6.48,6.48,0,0,1,117,17.74a2.86,2.86,0,0,1-1-2.35,3.19,3.19,0,0,1,1.26-2.66,5.3,5.3,0,0,1,3.36-1A5.93,5.93,0,0,1,125.15,13.58Z"/><path class="cls-6" d="M138.14,18.81h-9.4A4.18,4.18,0,0,0,130,21.58a3.88,3.88,0,0,0,2.72,1,4.35,4.35,0,0,0,2-.45,4.18,4.18,0,0,0,1.5-1.32L138,21.91a5.42,5.42,0,0,1-2.19,2,6.85,6.85,0,0,1-3.16.68,6,6,0,0,1-4.62-1.75,6.63,6.63,0,0,1-1.65-4.7,7.45,7.45,0,0,1,.7-3.34,5.19,5.19,0,0,1,2.06-2.25,6.06,6.06,0,0,1,3.18-.8,5.86,5.86,0,0,1,3.13.8,5.38,5.38,0,0,1,2,2.23,7.52,7.52,0,0,1,.68,3.28A7,7,0,0,1,138.14,18.81ZM130,14.63a4,4,0,0,0-1.18,2.19h6.91a3.73,3.73,0,0,0-1.13-2.23,3.21,3.21,0,0,0-2.27-.8A3.39,3.39,0,0,0,130,14.63Z"/><path class="cls-6" d="M47.75,28.59l-.64.52a2.6,2.6,0,0,0-.62-.49,1.73,1.73,0,0,0-.76-.16,1.42,1.42,0,0,0-.89.25.77.77,0,0,0-.31.64.67.67,0,0,0,.19.49,1.14,1.14,0,0,0,.45.29c.19.06.43.14.74.23a7.62,7.62,0,0,1,1,.31,1.69,1.69,0,0,1,.66.49,1.44,1.44,0,0,1,.27.95,1.81,1.81,0,0,1-.27,1,1.66,1.66,0,0,1-.76.64,2.75,2.75,0,0,1-1.11.23,2.49,2.49,0,0,1-2.29-1.28l.64-.41a2.14,2.14,0,0,0,.68.68,1.71,1.71,0,0,0,.95.25,1.52,1.52,0,0,0,.95-.27A.88.88,0,0,0,47,32.2a.66.66,0,0,0-.17-.47,1.23,1.23,0,0,0-.41-.29,6.86,6.86,0,0,0-.74-.23l-.33-.08a8.09,8.09,0,0,1-.87-.31,1.54,1.54,0,0,1-.58-.52,1.75,1.75,0,0,1,.31-2.12,2.15,2.15,0,0,1,1.46-.45A2.37,2.37,0,0,1,47.75,28.59Z"/><path class="cls-6" d="M49.65,27.85a.51.51,0,0,1,.14.37.44.44,0,0,1-.14.37.48.48,0,0,1-.35.12.58.58,0,0,1-.37-.12.51.51,0,0,1-.14-.37.44.44,0,0,1,.14-.37.49.49,0,0,1,.35-.12A.54.54,0,0,1,49.65,27.85Zm-.74,1.9h.76V33.8h-.76Z"/><path class="cls-6" d="M56.6,30.11A2.08,2.08,0,0,1,57,31.49V33.8h-.76V31.62a1.47,1.47,0,0,0-.25-.93.8.8,0,0,0-.7-.33,1.07,1.07,0,0,0-.6.19,1.5,1.5,0,0,0-.45.49,2.84,2.84,0,0,1,0,.45V33.8h-.76V31.62a1.57,1.57,0,0,0-.25-.95.84.84,0,0,0-.72-.33,1,1,0,0,0-.6.19,1.3,1.3,0,0,0-.41.47v2.78h-.76V29.72h.76v.43A1.58,1.58,0,0,1,54,30.3a1.66,1.66,0,0,1,1.36-.68A1.64,1.64,0,0,1,56.6,30.11Z"/><path class="cls-6" d="M61.05,29.91a1.87,1.87,0,0,1,.7.74,2.63,2.63,0,0,1,0,2.23,1.63,1.63,0,0,1-.7.74,2,2,0,0,1-1.05.27,1.48,1.48,0,0,1-1.18-.47V35.8h-.76V29.72h.76v.37A1.48,1.48,0,0,1,60,29.62,2.1,2.1,0,0,1,61.05,29.91Zm-1.75.6a1.2,1.2,0,0,0-.45.45v1.63a1.3,1.3,0,0,0,.45.43,1.34,1.34,0,0,0,.64.16,1.14,1.14,0,0,0,.93-.39,1.78,1.78,0,0,0,0-2.06,1.21,1.21,0,0,0-.93-.39A1.54,1.54,0,0,0,59.3,30.51Z"/><path class="cls-6" d="M62.91,27.68h.76V33.8h-.76Z"/><path class="cls-6" d="M68.41,32H65.3a1.39,1.39,0,0,0,.41.91,1.26,1.26,0,0,0,.91.33,1.35,1.35,0,0,0,.66-.14,1.26,1.26,0,0,0,.49-.43l.58.37a2.07,2.07,0,0,1-.72.68,2.3,2.3,0,0,1-1,.23,2,2,0,0,1-1.53-.58,2.16,2.16,0,0,1-.54-1.57,2.75,2.75,0,0,1,.23-1.11,1.83,1.83,0,0,1,.68-.74,1.9,1.9,0,0,1,1.05-.27,1.83,1.83,0,0,1,1,.27,1.65,1.65,0,0,1,.66.74,2.58,2.58,0,0,1,.23,1.09A.83.83,0,0,1,68.41,32Zm-2.68-1.4a1.45,1.45,0,0,0-.39.72h2.29a1.41,1.41,0,0,0-.37-.74,1,1,0,0,0-.74-.27A1.28,1.28,0,0,0,65.73,30.59Z"/><path class="cls-6" d="M72,33.8h-.87l2.35-6h.93l2.35,6h-.93l-.64-1.71H72.62Zm.93-2.45h2l-1-2.66Z"/><path class="cls-6" d="M80,29.87a1.79,1.79,0,0,1,.7.66l-.56.47a1.74,1.74,0,0,0-.52-.52,1.12,1.12,0,0,0-.6-.14,1.26,1.26,0,0,0-1,.37,1.78,1.78,0,0,0,0,2.06,1.17,1.17,0,0,0,.91.39,1.42,1.42,0,0,0,1.22-.68l.58.37a1.87,1.87,0,0,1-.7.74,2.36,2.36,0,0,1-2.19,0,1.87,1.87,0,0,1-.7-.74,2.63,2.63,0,0,1,0-2.23,1.68,1.68,0,0,1,.72-.74A2.12,2.12,0,0,1,79,29.62,2.5,2.5,0,0,1,80,29.87Z"/><path class="cls-6" d="M84.29,29.87a1.79,1.79,0,0,1,.7.66l-.56.47a1.74,1.74,0,0,0-.52-.52,1.12,1.12,0,0,0-.6-.14,1.26,1.26,0,0,0-1,.37,1.78,1.78,0,0,0,0,2.06,1.17,1.17,0,0,0,.91.39,1.42,1.42,0,0,0,1.22-.68l.58.37a1.87,1.87,0,0,1-.7.74,2.36,2.36,0,0,1-2.19,0,1.87,1.87,0,0,1-.7-.74,2.63,2.63,0,0,1,0-2.23,1.68,1.68,0,0,1,.72-.74,2.12,2.12,0,0,1,1.11-.27A2.5,2.5,0,0,1,84.29,29.87Z"/><path class="cls-6" d="M88.62,29.91a1.87,1.87,0,0,1,.7.74,2.63,2.63,0,0,1,0,2.23,1.63,1.63,0,0,1-.7.74,2.1,2.1,0,0,1-1.09.27,2,2,0,0,1-1.09-.27,1.87,1.87,0,0,1-.7-.74,2.63,2.63,0,0,1,0-2.23,1.63,1.63,0,0,1,.7-.74,2.1,2.1,0,0,1,1.09-.27A2,2,0,0,1,88.62,29.91Zm-2,.82a1.78,1.78,0,0,0,0,2.06,1.2,1.2,0,0,0,.91.39,1.13,1.13,0,0,0,.91-.39,1.48,1.48,0,0,0,.33-1,1.58,1.58,0,0,0-.33-1,1.2,1.2,0,0,0-.91-.39A1.24,1.24,0,0,0,86.62,30.73Z"/><path class="cls-6" d="M93.3,33.39a1.4,1.4,0,0,1-.54.37,1.82,1.82,0,0,1-.68.14,1.62,1.62,0,0,1-1.28-.49A2.12,2.12,0,0,1,90.37,32V29.74h.76v2.19a1.43,1.43,0,0,0,.27,1,1,1,0,0,0,.78.31,1.13,1.13,0,0,0,.66-.21,1.27,1.27,0,0,0,.45-.54v-2.7h.76v4.06H93.3Z"/><path class="cls-6" d="M98.52,30.13A2.12,2.12,0,0,1,99,31.58V33.8h-.76V31.62a1.43,1.43,0,0,0-.29-1,1.07,1.07,0,0,0-.82-.31,1.15,1.15,0,0,0-.68.21,1.33,1.33,0,0,0-.45.56v2.66H95.2V29.7H96v.45a1.55,1.55,0,0,1,1.26-.54A1.75,1.75,0,0,1,98.52,30.13Z"/><path class="cls-6" d="M101.9,30.44H100.8v2.19c0,.37.14.56.45.56a.89.89,0,0,0,.56-.21l.33.56a1.47,1.47,0,0,1-.43.25,1.39,1.39,0,0,1-.49.08,1.15,1.15,0,0,1-.85-.31,1.17,1.17,0,0,1-.31-.87V30.44h-.47v-.72h.47V28.63h.76v1.11h1.09v.7Z"/><path class="cls-6" d="M105.65,30.24l-.45.54a2.21,2.21,0,0,0-.45-.35,1.38,1.38,0,0,0-.62-.12,1,1,0,0,0-.56.12.42.42,0,0,0-.19.37.45.45,0,0,0,.1.29.84.84,0,0,0,.27.16,2.81,2.81,0,0,0,.49.12,7.64,7.64,0,0,1,.76.21,1.36,1.36,0,0,1,.49.35,1,1,0,0,1,.21.66,1.17,1.17,0,0,1-.43,1,1.77,1.77,0,0,1-1.13.35,2.09,2.09,0,0,1-1.67-.78l.52-.49a1.89,1.89,0,0,0,.54.47,1.27,1.27,0,0,0,.64.14c.51,0,.78-.19.78-.56a.51.51,0,0,0-.1-.31.52.52,0,0,0-.25-.16,2.63,2.63,0,0,0-.45-.12l-.31-.06a1.9,1.9,0,0,1-.85-.39.93.93,0,0,1-.33-.78,1.11,1.11,0,0,1,.41-.89,1.67,1.67,0,0,1,1.11-.33A1.94,1.94,0,0,1,105.65,30.24Z"/><path class="cls-6" d="M113,28.36a2.21,2.21,0,0,1,0,2.76,1.91,1.91,0,0,1-1.44.54h-1.38V33.8h-.85v-6h2.21A1.94,1.94,0,0,1,113,28.36Zm-1.55,2.56a1.19,1.19,0,0,0,.89-.31,1.27,1.27,0,0,0,.29-.89,1.17,1.17,0,0,0-.27-.82,1.26,1.26,0,0,0-.91-.29h-1.3v2.31Z"/><path class="cls-6" d="M117,30.11v-.37h.76V33.8H117v-.37a1.48,1.48,0,0,1-1.18.47,2,2,0,0,1-1.05-.27,1.87,1.87,0,0,1-.7-.74,2.63,2.63,0,0,1,0-2.23,1.64,1.64,0,0,1,.7-.74,2,2,0,0,1,1.05-.27A1.4,1.4,0,0,1,117,30.11Zm-2,.62a1.78,1.78,0,0,0,0,2.06,1.21,1.21,0,0,0,.93.39,1.34,1.34,0,0,0,.64-.17,1.15,1.15,0,0,0,.45-.43V31a1.58,1.58,0,0,0-.45-.45,1.3,1.3,0,0,0-1.57.23Z"/><path class="cls-6" d="M119.15,35.82l.89-2-1.77-4.1h.87l1.3,3.18,1.22-3.18h.85L120,35.82Z"/><path class="cls-6" d="M125.9,30.11v-.37h.76V33.8h-.76v-.37a1.48,1.48,0,0,1-1.18.47,2,2,0,0,1-1.05-.27,1.87,1.87,0,0,1-.7-.74,2.63,2.63,0,0,1,0-2.23,1.64,1.64,0,0,1,.7-.74,2,2,0,0,1,1.05-.27A1.4,1.4,0,0,1,125.9,30.11Zm-2,.62a1.78,1.78,0,0,0,0,2.06,1.21,1.21,0,0,0,.93.39,1.34,1.34,0,0,0,.64-.17,1.15,1.15,0,0,0,.45-.43V31a1.58,1.58,0,0,0-.45-.45,1.3,1.3,0,0,0-1.57.23Z"/><path class="cls-6" d="M129.71,29.64a2,2,0,0,1,1.05.27,1.87,1.87,0,0,1,.7.74,2.63,2.63,0,0,1,0,2.23,1.64,1.64,0,0,1-.7.74,2,2,0,0,1-1.05.27,1.48,1.48,0,0,1-1.18-.47v.37h-.76V27.66h.76v2.43A1.57,1.57,0,0,1,129.71,29.64Zm-.7.87a1.19,1.19,0,0,0-.45.45v1.63A1.3,1.3,0,0,0,129,33a1.34,1.34,0,0,0,.64.17,1.14,1.14,0,0,0,.93-.39,1.78,1.78,0,0,0,0-2.06,1.21,1.21,0,0,0-.93-.39A1.54,1.54,0,0,0,129,30.51Z"/><path class="cls-6" d="M132.62,27.68h.76V33.8h-.76Z"/><path class="cls-6" d="M138.12,32H135a1.39,1.39,0,0,0,.41.91,1.26,1.26,0,0,0,.91.33,1.36,1.36,0,0,0,.66-.14,1.26,1.26,0,0,0,.49-.43l.58.37a2.07,2.07,0,0,1-.72.68,2.3,2.3,0,0,1-1,.23,2,2,0,0,1-1.53-.58,2.16,2.16,0,0,1-.54-1.57,2.76,2.76,0,0,1,.23-1.11,1.83,1.83,0,0,1,.68-.74,1.9,1.9,0,0,1,1.05-.27,1.83,1.83,0,0,1,1,.27,1.65,1.65,0,0,1,.66.74,2.59,2.59,0,0,1,.23,1.09Zm-2.7-1.4a1.31,1.31,0,0,0-.39.72h2.29a1.41,1.41,0,0,0-.37-.74,1,1,0,0,0-.74-.27A1.33,1.33,0,0,0,135.42,30.59Z"/></svg>