<svg id="Layer_1" data-name="Layer 1" xmlns="http://www.w3.org/2000/svg" viewBox="0 0 133 28"><defs><style>.cls-1{fill:#fff;}</style></defs><title>natwest-logo-white</title><path class="cls-1" d="M40.31,14.63c0-.68,0-1.36-.09-2a6.13,6.13,0,0,0-4.58-5.68,12.71,12.71,0,0,0-5.44-.39,34.53,34.53,0,0,0-3.92.89c-.16,0-.38.24-.38.38,0,1.26,0,2.54,0,3.68,1.39-.3,2.75-.67,4.11-.85a9,9,0,0,1,4.17.26,2.64,2.64,0,0,1,1.5,3.25c-1.51,0-3-.06-4.55,0a12.91,12.91,0,0,0-3,.45,6.72,6.72,0,0,0,.18,13c.69.18,1.41.24,2.12.35h.11a5.64,5.64,0,0,1,.6-.1,7.14,7.14,0,0,0,4.25-1.69,3.62,3.62,0,0,1,.41-.28v1.55h4.5v-.69Q40.31,20.71,40.31,14.63Zm-4.52,6.73a.43.43,0,0,1-.1.24,5.9,5.9,0,0,1-5.88,2.11,2.74,2.74,0,0,1-2-3.13,2.69,2.69,0,0,1,2.56-2.35c1.78-.16,3.58-.13,5.47-.2ZM103,18.93a14.71,14.71,0,0,0-.22-5.55C101.64,8.84,98.25,5.9,93.2,6.6a8.67,8.67,0,0,0-7.26,5.59A14.45,14.45,0,0,0,85.26,20,8.82,8.82,0,0,0,92,27.57c.77.2,1.55.29,2.32.43h.89a6,6,0,0,1,.77-.1A12,12,0,0,0,101,26.65c.16-.08.37-.26.37-.4,0-1.3,0-2.61,0-3.85-1,.39-2,.84-3,1.12a8.88,8.88,0,0,1-5.6,0,4.53,4.53,0,0,1-2.88-4.53C94.2,18.93,98.57,18.93,103,18.93ZM89.76,15a4.74,4.74,0,0,1,2.09-3.84A4.08,4.08,0,0,1,96.26,11c1.53.84,2,2.33,2.23,4ZM111,28c-.83-.16-1.67-.26-2.48-.47s-1.79-.57-2.67-.89a.62.62,0,0,1-.35-.41c0-1.33,0-2.65,0-4.07l.59.28A13.5,13.5,0,0,0,112.21,24a5.56,5.56,0,0,0,2-.42,1.78,1.78,0,0,0,.27-3.23,15.65,15.65,0,0,0-2-1c-1.26-.58-2.54-1.1-3.78-1.71a5.55,5.55,0,0,1-3.45-6,5.93,5.93,0,0,1,4.59-4.78,14,14,0,0,1,8.26.68.65.65,0,0,1,.34.45c0,1.3,0,2.58,0,3.9-.92-.34-1.79-.73-2.7-1a8.79,8.79,0,0,0-4.32-.29,2.86,2.86,0,0,0-.68.22,1.43,1.43,0,0,0-.4,2.48,5.68,5.68,0,0,0,1.35.87c1.47.69,3,1.31,4.44,2a6.38,6.38,0,0,1,3.3,2.92,5.89,5.89,0,0,1-2.39,7.69,8.19,8.19,0,0,1-3.39,1.13,3,3,0,0,0-.42.11C112.5,28,111.77,28,111,28ZM49.44,28c-.4-.08-.79-.14-1.19-.23a4.42,4.42,0,0,1-3.57-4.25c-.08-3.95-.07-7.91-.1-11.86v-.78H41.71v-4h2.85c0-.23,0-.43,0-.62,0-1.39,0-2.77,0-4.16A.55.55,0,0,1,45,1.45C46.37,1,47.7.52,49.1,0V6.8h5v4h-5V21.7c.07,1.44.73,2.1,2.17,2.07.91,0,1.82-.12,2.82-.2V26c0,1.54,0,1.55-1.57,1.71-.84.09-1.69.16-2.53.23A4.38,4.38,0,0,1,49.44,28Zm78.92,0a15.39,15.39,0,0,1-1.61-.34,4.32,4.32,0,0,1-3.13-3.77,11,11,0,0,1-.11-1.82c0-3.49,0-7,0-10.48v-.71h-2.87v-4h2.87V4.06c0-.7,0-1.41,0-2.11a.55.55,0,0,1,.21-.43C125.14,1,126.56.51,128,0V6.77h4.89c0,.26.05.44.05.63,0,.92,0,1.85,0,2.77,0,.53-.18.65-.67.64-1.2,0-2.41,0-3.61,0H128V21.6c0,1.5.66,2.15,2.17,2.15.47,0,.93,0,1.39,0s.87-.18,1.39-.29V26c0,1.58,0,1.58-1.62,1.74l-2.42.23A3.5,3.5,0,0,1,128.36,28ZM85,.19c-.22,1.14-.44,2.26-.67,3.37q-1.42,7.06-2.85,14.11c-.63,3.15-1.27,6.31-1.89,9.46-.06.3-.19.4-.48.39q-1.92,0-3.83,0c-.36,0-.41-.17-.48-.45Q72.51,18.2,70.24,9.33c-.07-.27-.14-.52-.22-.78h-.1L68.78,12.9Q66.95,20,65.13,27.06c-.09.34-.21.48-.59.48-1.33,0-2.67,0-4.06,0Q57.61,13.86,54.74.19h4.71q1.83,9.19,3.68,18.4l.1,0c.07-.23.14-.45.21-.69Q65.62,9.26,67.77.59c.08-.3.17-.44.5-.43,1.31,0,2.62,0,4,0q2.33,9.2,4.66,18.4h.14Q78.77,9.4,80.47.19ZM20.61.2V27.53c-.7,0-1.41,0-2.13,0a4.86,4.86,0,0,1-2.07-.11c-.52-.29-.78-1.09-1.15-1.66Q10,17.39,4.78,9a1.37,1.37,0,0,0-.44-.48V27.49H0V.16c1.06,0,2.1.07,3.15,0A1.7,1.7,0,0,1,5,1.13Q10.35,10,15.83,18.77a1.17,1.17,0,0,0,.44.47V.18C17.75.2,19.15.2,20.61.2Z"/></svg>