<svg id="Layer_1" data-name="Layer 1" xmlns="http://www.w3.org/2000/svg" viewBox="0 0 113.91 17.09"><defs><style>.cls-1{fill:#fff;}</style></defs><title>netsuite-logo</title><path class="cls-1" d="M5.23.81,11.3,13.38a9.41,9.41,0,0,0,.11-2.17c0-.7,0-1.39,0-2.09V.81h3.28V17.1c-.21,0-.42,0-.63,0-1.19,0-2.38,0-3.57,0a.86.86,0,0,1-.93-.59C7.85,12.92,6.11,9.28,4.39,5.63c-.22-.45-.42-.91-.64-1.37A.57.57,0,0,0,3.42,4V17a10.77,10.77,0,0,1-3.33.06V.81Z" transform="translate(-0.09 -0.44)"/><path class="cls-1" d="M22.08,7.31h7V10H22v4.4c2.56.06,5.12,0,7.73,0V17c-.53.14-10.47.17-11.27,0V.81h11V3.38H22.17A14.67,14.67,0,0,0,22.08,7.31Z" transform="translate(-0.09 -0.44)"/><path class="cls-1" d="M59.28,4.82H57c0-.14-.07-.27-.1-.4A2.35,2.35,0,0,0,55,2.54a6.22,6.22,0,0,0-3.17,0,2.49,2.49,0,0,0-2,2.54,1.72,1.72,0,0,0,1,1.63,8.23,8.23,0,0,0,1.42.54c1.35.37,2.72.71,4.08,1.06l.42.13a3.9,3.9,0,0,1,3,3A4.57,4.57,0,0,1,58.18,16a6.49,6.49,0,0,1-3.73,1.46,10.46,10.46,0,0,1-3.9-.27,4.35,4.35,0,0,1-3.42-4.51,1.23,1.23,0,0,1,.07-.29h2.26c.07.36.12.69.19,1a2.37,2.37,0,0,0,1.47,1.76,6,6,0,0,0,4.54,0,2.69,2.69,0,0,0,1.73-2.6,1.88,1.88,0,0,0-1-1.77,10.17,10.17,0,0,0-1.76-.66c-1.14-.32-2.3-.58-3.45-.88a10.37,10.37,0,0,1-1.24-.41,4,4,0,0,1-1.4-6.6A5.71,5.71,0,0,1,50.58,1,9.14,9.14,0,0,1,56.23.81a3.89,3.89,0,0,1,3.07,3.73A1.64,1.64,0,0,1,59.28,4.82Z" transform="translate(-0.09 -0.44)"/><path class="cls-1" d="M63.39.52h2.28c0,.27,0,.52,0,.78q0,4.53,0,9.07a12.92,12.92,0,0,0,.09,1.5,3.5,3.5,0,0,0,2.68,3.06,6.1,6.1,0,0,0,3.37.05,3.45,3.45,0,0,0,2.69-2.89,9.72,9.72,0,0,0,.15-1.78c0-3,0-6,0-9V.56a9.4,9.4,0,0,1,2.16,0,3.38,3.38,0,0,1,.06.43c0,3.4,0,6.81,0,10.22a5.89,5.89,0,0,1-5.35,5.92,8.56,8.56,0,0,1-4.84-.62A5.09,5.09,0,0,1,63.49,12c-.05-.65-.09-1.3-.09-1.94q0-4.35,0-8.71C63.39,1.13,63.39.87,63.39.52Z" transform="translate(-0.09 -0.44)"/><path class="cls-1" d="M31.77,3.55V.87H45.13V3.55H40.25V17.17h-3.6V3.55Z" transform="translate(-0.09 -0.44)"/><path class="cls-1" d="M113.77,1V2.8h-8c0,1.72,0,3.37,0,5.12h7.64V9.8c-.82.06-1.66,0-2.5,0h-5.13v5.42H114v2H103.44V1C104,.87,112.86.82,113.77,1Z" transform="translate(-0.09 -0.44)"/><path class="cls-1" d="M100.65.93V2.72l-1.78,0H95.17V17.13a16.06,16.06,0,0,1-2.28.06V2.75H87.37V1C87.87.8,99.8.76,100.65.93Z" transform="translate(-0.09 -0.44)"/><path class="cls-1" d="M84,.87V17.19H81.74V.87H84Z" transform="translate(-0.09 -0.44)"/></svg>