<svg id="Layer_1" data-name="Layer 1" xmlns="http://www.w3.org/2000/svg" viewBox="0 0 56.33 56.33"><defs><style>.cls-1{fill:#fff;}</style></defs><title>quickbooks-logo</title><path class="cls-1" d="M57,28.29C56.72,13.17,44.75,1,28.82.67,13.09,1,.71,13,.67,28.81A27.84,27.84,0,0,0,28.78,57,27.91,27.91,0,0,0,57,28.29ZM27.53,45.45H23.62V21.56c-2,.11-4-.25-6,.45a7.23,7.23,0,0,0-4,10.1,7,7,0,0,0,6.3,4c.38,0,.75,0,1.17,0V40a11.26,11.26,0,0,1-12-13.55,11.12,11.12,0,0,1,9.63-8.74c2.15-.22,4.35-.08,6.52-.11.74,0,1.49,0,2.27,0C27.53,26.92,27.53,36.16,27.53,45.45ZM48.77,29.33A11,11,0,0,1,39.06,39.9c-2.93.31-5.92.1-8.87.12,0,0,0,0-.07-.06V12.25H34V36.09c2.17-.12,4.29.31,6.33-.56a7.26,7.26,0,0,0-2.62-14c-.37,0-.75,0-1.16,0v-4a31.42,31.42,0,0,1,3.23.3A11.21,11.21,0,0,1,48.77,29.33Z" transform="translate(-0.67 -0.67)"/></svg>