<svg id="Layer_1" data-name="Layer 1" xmlns="http://www.w3.org/2000/svg" viewBox="0 0 63.95 24.31"><defs><style>.cls-1{fill:#fff;}</style></defs><title>sage-logo</title><path class="cls-1" d="M.17,15.37c.88-.86,1.74-1.67,2.59-2.48.3.23.65.53,1,.79a7.88,7.88,0,0,0,4.07,1.43,6.37,6.37,0,0,0,2.94-.42,2.64,2.64,0,0,0,1.25-.88,1.42,1.42,0,0,0-.67-2.24,8.62,8.62,0,0,0-1.71-.32,30.76,30.76,0,0,1-4.58-.62A6.66,6.66,0,0,1,2.33,9.28,4,4,0,0,1,.94,6.39,4.61,4.61,0,0,1,3.58,1.88,8.47,8.47,0,0,1,7.07.79a12.74,12.74,0,0,1,7.41,1.43c.35.19.67.42,1,.62.12.07.21.16.28.21L13.46,5.42c-.44-.23-.9-.49-1.39-.69A9,9,0,0,0,7.74,4a4.53,4.53,0,0,0-2.57.88,1.23,1.23,0,0,0,0,2,3.74,3.74,0,0,0,1.94.69c1.07.14,2.15.21,3.22.3a9.61,9.61,0,0,1,3.4.88A3.91,3.91,0,0,1,16.13,12a5.4,5.4,0,0,1-1.23,4.28A6,6,0,0,1,12,18.1a11.54,11.54,0,0,1-4.45.46A11.33,11.33,0,0,1,1.1,16.15C.8,15.92.5,15.64.17,15.37Z" transform="translate(-0.17 -0.71)"/><path class="cls-1" d="M47.38,1.32V1.09H43.47v1.8l-.07,0a1.63,1.63,0,0,0-.16-.21,6.24,6.24,0,0,0-2.45-1.62A7.65,7.65,0,0,0,37,.84a5.63,5.63,0,0,0-4.68,4,8.58,8.58,0,0,0-.35,2.66c0,1.3,0,2.57,0,3.86a17.58,17.58,0,0,0,.21,2.22,5.15,5.15,0,0,0,1.34,2.91,6.75,6.75,0,0,0,5.58,2.11,6.33,6.33,0,0,0,3.59-1.39c.28-.21.51-.46.79-.72,0,.49,0,.95,0,1.41a3.07,3.07,0,0,1-1.23,2.36,5,5,0,0,1-5.51.44l-.9-.53-2.62,2.61c.16.14.37.28.56.42a9,9,0,0,0,7.18,1.69,8.07,8.07,0,0,0,4.47-2.34,7.35,7.35,0,0,0,2-5.16C47.4,12,47.38,6.67,47.38,1.32Zm-4,10.29A3.43,3.43,0,0,1,40.3,15a4.57,4.57,0,0,1-3.57-.93,2.63,2.63,0,0,1-1.07-2c-.07-.81-.09-1.64-.14-2.41s.09-1.69.14-2.5a2.84,2.84,0,0,1,1.39-2.34,4.44,4.44,0,0,1,4.79-.14A2.88,2.88,0,0,1,43.4,7.22C43.42,8.68,43.47,10.16,43.42,11.62Z" transform="translate(-0.17 -0.71)"/><path class="cls-1" d="M31.5,7.08a9.63,9.63,0,0,0-.09-1.41,5,5,0,0,0-3.22-4.23A12.36,12.36,0,0,0,23.33.72a10.5,10.5,0,0,0-5,1.34c-.53.3-1,.65-1.57,1,0,.07,0,.09.07.12L19,5.35c.12.12.16.07.28,0a14.79,14.79,0,0,1,1.32-.74A7.49,7.49,0,0,1,24.74,4a6.56,6.56,0,0,1,1.6.44,1.88,1.88,0,0,1,1.23,1.69c0,.67,0,1.32,0,2,0,0,0,0,0,0H22a7.67,7.67,0,0,0-2.62.44,4.06,4.06,0,0,0-2.78,2.91,6.31,6.31,0,0,0-.09,2.64,4.7,4.7,0,0,0,3.1,3.91,8.81,8.81,0,0,0,4.1.44,5.68,5.68,0,0,0,2.85-1c.37-.28.69-.6,1.07-.9v1.67h3.87v-.32C31.5,14.32,31.5,10.69,31.5,7.08Zm-4,6.27A2.17,2.17,0,0,1,25.6,15a11,11,0,0,1-4.26-.07,2.23,2.23,0,0,1-.65-.25,1.76,1.76,0,0,1-.9-2.17,1.55,1.55,0,0,1,1.3-1,9.45,9.45,0,0,1,1.6-.21c1.6,0,3.19,0,4.79,0h.19A8,8,0,0,1,27.47,13.35Z" transform="translate(-0.17 -0.71)"/><path class="cls-1" d="M63.75,6.11a6.51,6.51,0,0,0-4.19-4.79A10.16,10.16,0,0,0,54.37.86a7.21,7.21,0,0,0-6.09,5.25,11.66,11.66,0,0,0-.23,6.36,7.33,7.33,0,0,0,2.69,4.35,8.74,8.74,0,0,0,6.18,1.76,9.42,9.42,0,0,0,5.19-2c.39-.3.74-.65,1.11-.95l-2.29-2.29h0l-.09.07a6.7,6.7,0,0,1-5.9,1.46A4,4,0,0,1,52.13,13a3.26,3.26,0,0,1-.44-1.76H63.8c.12,0,.16,0,.19-.16A12.43,12.43,0,0,0,63.75,6.11ZM51.69,8.24a4.3,4.3,0,0,1,.39-1.94,3.83,3.83,0,0,1,2.48-2.15A5.27,5.27,0,0,1,59,4.56a3.86,3.86,0,0,1,1.9,2.91c0,.25,0,.51.07.76Z" transform="translate(-0.17 -0.71)"/></svg>