<svg version="1.2" baseProfile="tiny" id="Layer_1" xmlns="http://www.w3.org/2000/svg" xmlns:xlink="http://www.w3.org/1999/xlink"
	 x="0px" y="0px" width="295.156px" height="143.561px" viewBox="32.385 108.317 295.156 143.561" overflow="inherit"
	 xml:space="preserve">
<path d="M255.762,251.878c39.639,0,71.779-32.142,71.779-71.78c0-39.639-32.141-71.78-71.779-71.78
	c-39.64,0-71.781,32.141-71.781,71.78C183.957,219.736,216.098,251.878,255.762,251.878"/>
<path fill="#13B5EA" d="M104.19,251.878c39.639,0,71.78-32.142,71.78-71.78c0-39.639-32.141-71.78-71.78-71.78
	s-71.805,32.141-71.805,71.78C32.385,219.736,64.526,251.878,104.19,251.878"/>
<path fill="#FFFFFF" d="M66.749,179.878l12.26-12.285c0.416-0.415,0.635-0.977,0.635-1.539c0-1.221-0.977-2.198-2.198-2.198
	c-0.586,0-1.148,0.22-1.563,0.659l-12.236,12.236l-12.285-12.261c-0.415-0.415-0.977-0.635-1.563-0.635
	c-1.197,0-2.198,0.977-2.198,2.198c0,0.586,0.22,1.148,0.66,1.563l12.26,12.236l-12.236,12.261c-0.44,0.415-0.66,0.977-0.66,1.563
	c0,1.221,0.977,2.197,2.198,2.197c0.586,0,1.124-0.22,1.563-0.635l12.285-12.261l12.236,12.212c0.439,0.439,1.001,0.684,1.587,0.684
	c1.221,0,2.198-0.977,2.198-2.197c0-0.587-0.22-1.124-0.635-1.539L66.749,179.878z"/>
<path fill="#FFFFFF" d="M139.58,179.878c0,2.198,1.783,3.981,3.981,3.981c2.198,0,3.981-1.783,3.981-3.981s-1.783-3.981-3.981-3.981
	C141.387,175.897,139.58,177.68,139.58,179.878"/>
<path fill="#FFFFFF" d="M132.008,179.878c0-6.375,5.178-11.552,11.552-11.552s11.552,5.178,11.552,11.552
	c0,6.374-5.178,11.552-11.552,11.552C137.21,191.43,132.008,186.252,132.008,179.878 M127.465,179.878
	c0,8.866,7.229,16.095,16.095,16.095s16.095-7.205,16.095-16.095c0-8.866-7.229-16.095-16.095-16.095
	S127.465,171.012,127.465,179.878"/>
<path fill="#FFFFFF" d="M126.342,164.076h-0.684c-2.027,0-3.981,0.635-5.618,1.905c-0.22-0.977-1.099-1.734-2.149-1.734
	c-1.197,0-2.174,0.977-2.174,2.173v27.11c0,1.197,1.001,2.198,2.198,2.198s2.198-0.977,2.198-2.198v-16.656
	c0-5.544,0.513-7.791,5.276-8.402c0.439-0.049,0.928-0.049,0.928-0.049c1.294-0.049,2.223-0.928,2.223-2.149
	S127.539,164.076,126.342,164.076"/>
<path fill="#FFFFFF" d="M84.187,177.24c0-0.049,0-0.122,0-0.195c1.27-5.031,5.837-8.768,11.259-8.768
	c5.496,0,10.111,3.81,11.308,8.939H84.187V177.24z M111.273,176.825c-0.953-4.47-3.395-8.158-7.132-10.527
	c-5.446-3.468-12.651-3.272-17.927,0.489c-4.298,3.053-6.79,8.06-6.79,13.213c0,1.295,0.146,2.589,0.488,3.883
	c1.612,6.375,7.107,11.211,13.653,12.017c1.954,0.245,3.834,0.122,5.788-0.391c1.686-0.415,3.322-1.099,4.812-2.052
	c1.563-1.001,2.857-2.32,4.127-3.907c0.024-0.024,0.049-0.05,0.073-0.099c0.879-1.074,0.708-2.637-0.244-3.369
	c-0.806-0.611-2.174-0.88-3.248,0.488c-0.22,0.316-0.489,0.659-0.782,1.001c-0.855,0.929-1.905,1.856-3.175,2.564
	c-1.612,0.854-3.443,1.343-5.397,1.368c-6.375-0.074-9.793-4.519-11.015-7.693c-0.195-0.586-0.367-1.222-0.489-1.856
	c-0.024-0.122-0.024-0.245-0.024-0.343c1.319,0,22.909,0,22.909,0C110.052,181.588,111.737,179.365,111.273,176.825"/>
<g>
	<path fill="#FFFFFF" d="M212.459,166.86c-0.293,0-0.488-0.098-0.855-0.317c-0.366-0.245-0.83-0.391-1.49-0.391
		c-1.709,0-2.588,1.124-2.588,3.859v2.101c0,2.857,0.879,3.786,2.49,3.786c0.611,0,1.197-0.146,1.686-0.44
		c0.342-0.195,0.562-0.293,0.83-0.293c0.611,0,1.124,0.464,1.124,1.124c0,0.342-0.146,0.733-0.537,1.026
		c-0.782,0.684-2.198,1.001-3.103,1.001c-3.736,0-5.152-2.516-5.152-6.204v-2.198c0-3.542,1.416-6.204,5.251-6.204
		c1.05,0,2.296,0.342,3.004,0.928c0.391,0.317,0.562,0.66,0.562,1.001C213.68,166.225,213.265,166.836,212.459,166.86z"/>
	<path fill="#FFFFFF" d="M220.201,178.339c-3.811,0-5.08-2.613-5.08-5.3v-4.055c0-2.687,1.27-5.275,5.08-5.275
		c3.785,0,5.104,2.589,5.104,5.275v4.055C225.305,175.726,223.986,178.339,220.201,178.339z M222.594,169.01
		c0-1.637-0.537-2.833-2.393-2.833c-1.881,0-2.395,1.172-2.395,2.833v4.054c0,1.685,0.538,2.857,2.395,2.857
		c1.881,0,2.393-1.197,2.393-2.857V169.01z"/>
	<path fill="#FFFFFF" d="M236.369,178.315c-0.586,0-1.025-0.195-1.318-0.66l-5.031-8.353v7.767c0,0.684-0.538,1.221-1.222,1.221
		c-0.685,0-1.222-0.538-1.222-1.221v-12.114c0-0.684,0.488-1.246,1.319-1.246c0.587,0,1.026,0.245,1.319,0.708l5.006,8.328v-7.767
		c0-0.684,0.537-1.246,1.222-1.246c0.684,0,1.245,0.562,1.245,1.246v12.114C237.688,177.777,237.15,178.315,236.369,178.315z"/>
	<path fill="#FFFFFF" d="M248.996,178.315c-0.586,0-1.025-0.195-1.318-0.66l-5.031-8.353v7.767c0,0.684-0.538,1.221-1.222,1.221
		c-0.685,0-1.222-0.538-1.222-1.221v-12.114c0-0.684,0.488-1.246,1.319-1.246c0.586,0,1.026,0.245,1.319,0.708l5.006,8.328v-7.767
		c0-0.684,0.537-1.246,1.222-1.246c0.684,0,1.245,0.562,1.245,1.246v12.114C250.314,177.777,249.777,178.315,248.996,178.315z"/>
	<path fill="#FFFFFF" d="M260.451,178.144h-6.351c-0.708,0-1.271-0.562-1.271-1.294v-11.675c0-0.708,0.562-1.294,1.271-1.294h6.105
		c0.708,0,1.271,0.586,1.271,1.294c0,0.708-0.562,1.295-1.271,1.295h-4.688v3.297h4.249c0.685,0,1.245,0.562,1.245,1.246
		s-0.561,1.221-1.245,1.221h-4.249v3.322h4.934c0.707,0,1.27,0.562,1.27,1.27C261.721,177.582,261.158,178.144,260.451,178.144z"/>
	<path fill="#FFFFFF" d="M270.709,166.86c-0.294,0-0.489-0.098-0.855-0.317c-0.366-0.245-0.83-0.391-1.49-0.391
		c-1.709,0-2.588,1.124-2.588,3.859v2.101c0,2.857,0.879,3.786,2.49,3.786c0.611,0,1.197-0.146,1.686-0.44
		c0.342-0.195,0.562-0.293,0.83-0.293c0.611,0,1.124,0.464,1.124,1.124c0,0.342-0.147,0.733-0.538,1.026
		c-0.781,0.684-2.197,1.001-3.102,1.001c-3.736,0-5.152-2.516-5.152-6.204v-2.198c0-3.542,1.416-6.204,5.25-6.204
		c1.051,0,2.297,0.342,3.004,0.928c0.392,0.317,0.562,0.66,0.562,1.001C271.93,166.225,271.539,166.836,270.709,166.86z"/>
	<path fill="#FFFFFF" d="M283.188,166.519h-2.979v10.453c0,0.732-0.61,1.343-1.344,1.343c-0.732,0-1.343-0.611-1.343-1.343v-10.453
		h-2.979c-0.732,0-1.318-0.586-1.318-1.319c0-0.732,0.586-1.318,1.318-1.318h8.646c0.733,0,1.319,0.586,1.319,1.318
		C284.482,165.932,283.896,166.519,283.188,166.519z"/>
	<path fill="#FFFFFF" d="M293.838,178.144h-6.351c-0.708,0-1.271-0.562-1.271-1.294v-11.675c0-0.708,0.562-1.294,1.271-1.294h6.105
		c0.708,0,1.271,0.586,1.271,1.294c0,0.708-0.562,1.295-1.271,1.295h-4.688v3.297h4.249c0.685,0,1.245,0.562,1.245,1.246
		s-0.561,1.221-1.245,1.221h-4.249v3.322h4.934c0.707,0,1.27,0.562,1.27,1.27C295.107,177.582,294.545,178.144,293.838,178.144z"/>
	<path fill="#FFFFFF" d="M302.043,178.144h-3.712c-0.732,0-1.319-0.611-1.319-1.343v-11.552c0-0.733,0.587-1.343,1.319-1.343h3.712
		c4.348,0,5.031,3.15,5.031,5.3v3.663C307.074,175.042,306.391,178.144,302.043,178.144z M304.389,169.229
		c0-1.661-0.514-2.76-2.541-2.76h-2.174v9.134h2.174c2.027,0,2.541-1.099,2.541-2.76V169.229z"/>
	<path fill="#FFFFFF" d="M248.434,196.877c-0.561,0-1.123-0.318-1.294-1.051c-0.146-0.708-0.342-1.416-0.513-2.1h-4.592
		c-0.171,0.684-0.342,1.392-0.513,2.1c-0.171,0.732-0.708,1.051-1.245,1.051c-0.758,0-1.539-0.635-1.319-1.637
		c0.929-4.104,2.174-7.864,3.663-11.576c0.488-1.173,1.124-1.417,1.734-1.417c0.586,0,1.295,0.244,1.758,1.417
		c1.516,3.688,2.712,7.473,3.664,11.576C249.997,196.266,249.216,196.877,248.434,196.877z M244.331,186.496
		c-0.586,1.612-1.124,3.2-1.636,4.861h3.297C245.479,189.696,244.917,188.084,244.331,186.496z"/>
	<path fill="#FFFFFF" d="M256.665,191.43h-2.491v4.104c0,0.732-0.586,1.344-1.344,1.344c-0.732,0-1.318-0.611-1.318-1.344v-11.723
		c0-0.733,0.586-1.344,1.318-1.344h3.713c3.37,0,4.469,2.076,4.469,4.029v1.026C261.037,189.818,259.449,191.43,256.665,191.43z
		 M258.326,186.545c0-0.757-0.367-1.538-2.004-1.538h-2.124v3.981h2.369c1.343,0,1.782-0.758,1.782-1.539v-0.904H258.326z"/>
	<path fill="#FFFFFF" d="M268.119,191.43h-2.49v4.104c0,0.732-0.587,1.344-1.344,1.344c-0.732,0-1.318-0.611-1.318-1.344v-11.723
		c0-0.733,0.586-1.344,1.318-1.344h3.712c3.37,0,4.47,2.076,4.47,4.029v1.026C272.467,189.818,270.904,191.43,268.119,191.43z
		 M269.78,186.545c0-0.757-0.366-1.538-2.003-1.538h-2.125v3.981h2.369c1.344,0,1.783-0.758,1.783-1.539v-0.904H269.78z"/>
</g>
</svg>
